<?xml version="1.0" encoding="utf-8"?>
<!-- Generator: Adobe Illustrator 22.0.1, SVG Export Plug-In . SVG Version: 6.00 Build 0)  -->
<svg version="1.1" id="Capa_1" xmlns="http://www.w3.org/2000/svg" xmlns:xlink="http://www.w3.org/1999/xlink" x="0px" y="0px"
	 viewBox="0 0 200 200" style="enable-background:new 0 0 200 200;" xml:space="preserve">
<style type="text/css">
	.st0{fill:#6E573E;}
	.st1{fill:#614C36;}
	.st2{fill:#FCBA65;}
	.st3{fill:#FBAC49;}
	.st4{fill:#A68260;}
	.st5{fill:#8C6B51;}
	.st6{fill:#FEDF65;}
	.st7{fill:#FFCF2F;}
	.st8{fill:#231F20;}
	.st9{fill:#EA4648;}
	.st10{fill:#E9E9E9;}
	.st11{fill:#54ACD5;}
	.st12{fill:#FFCF2D;}
	.st13{fill:#AFDDF7;}
	.st14{fill:#75C26E;}
</style>
<g>
	<g>
		<rect x="3.9" y="135.3" class="st0" width="192.2" height="36.1"/>
		<rect x="185.6" y="135.3" class="st1" width="10.5" height="36.1"/>
		<path class="st2" d="M182.6,114.3H17.4c-7.4,0-13.5,6-13.5,13.5v7.6h192.2v-7.6C196.1,120.3,190.1,114.3,182.6,114.3L182.6,114.3z
			 M182.6,114.3"/>
		<path class="st3" d="M182.6,114.3h-10.5c7.4,0,13.5,6,13.5,13.5v7.6h10.5v-7.6C196.1,120.3,190.1,114.3,182.6,114.3L182.6,114.3z
			 M182.6,114.3"/>
		<path class="st4" d="M181.5,114.3H18.5V78.8c0-5.4,4.4-9.9,9.9-9.9h143.4c5.4,0,9.9,4.4,9.9,9.9V114.3z M181.5,114.3"/>
		<path class="st5" d="M171.7,68.9h-10.5c5.4,0,9.9,4.4,9.9,9.9v35.5h10.5V78.8C181.5,73.4,177.1,68.9,171.7,68.9L171.7,68.9z
			 M171.7,68.9"/>
		<path class="st6" d="M87.5,114.3H37.3v-9.6c0-5.4,4.4-9.8,9.8-9.8h30.6c5.4,0,9.8,4.4,9.8,9.8V114.3z M87.5,114.3"/>
		<path class="st6" d="M162.7,114.3h-50.1v-9.6c0-5.4,4.4-9.8,9.8-9.8h30.6c5.4,0,9.8,4.4,9.8,9.8L162.7,114.3L162.7,114.3z
			 M162.7,114.3"/>
		<path class="st7" d="M77.7,94.9H67.2c5.4,0,9.8,4.4,9.8,9.8v9.6h10.5v-9.6C87.5,99.3,83.1,94.9,77.7,94.9L77.7,94.9z M77.7,94.9"
			/>
		<path class="st7" d="M152.9,94.9h-10.5c5.4,0,9.8,4.4,9.8,9.8v9.6h10.5v-9.6C162.7,99.3,158.3,94.9,152.9,94.9L152.9,94.9z
			 M152.9,94.9"/>
		<path d="M184.4,111.5V78.8c0-7-5.7-12.8-12.8-12.8H58.1c-1.6,0-2.9,1.3-2.9,2.9c0,1.6,1.3,2.9,2.9,2.9h113.6c3.8,0,7,3.1,7,7v32.6
			h-13.1v-6.7c0-7-5.7-12.7-12.7-12.7h-30.6c-7,0-12.7,5.7-12.7,12.7v6.7H90.4v-6.7c0-7-5.7-12.7-12.7-12.7H47.1
			c-7,0-12.7,5.7-12.7,12.7v6.7H21.4V78.8c0-3.8,3.1-7,7-7h18.2c1.6,0,2.9-1.3,2.9-2.9c0-1.6-1.3-2.9-2.9-2.9H28.3
			c-7,0-12.8,5.7-12.8,12.8v32.7C7.4,112.4,1,119.3,1,127.7v43.7c0,1.6,1.3,2.9,2.9,2.9h42.6c1.6,0,2.9-1.3,2.9-2.9
			c0-1.6-1.3-2.9-2.9-2.9H6.8v-30.3h148.6c1.6,0,2.9-1.3,2.9-2.9c0-1.6-1.3-2.9-2.9-2.9H6.8v-4.7c0-5.8,4.7-10.5,10.5-10.5h165.3
			c5.8,0,10.5,4.7,10.5,10.5v4.7H167c-1.6,0-2.9,1.3-2.9,2.9c0,1.6,1.3,2.9,2.9,2.9h26.2v30.3H58.1c-1.6,0-2.9,1.3-2.9,2.9
			c0,1.6,1.3,2.9,2.9,2.9h138c1.6,0,2.9-1.3,2.9-2.9v-43.7C199,119.3,192.6,112.4,184.4,111.5L184.4,111.5z M115.4,104.7
			c0-3.8,3.1-6.9,6.9-6.9h30.6c3.8,0,6.9,3.1,6.9,6.9v6.7h-44.3V104.7z M40.2,104.7c0-3.8,3.1-6.9,6.9-6.9h30.6
			c3.8,0,6.9,3.1,6.9,6.9v6.7H40.2V104.7z M40.2,104.7"/>
	</g>
	<g>
		<g>
			<g>
				<path class="st8" d="M125.3,125.1H56.6c-2.7,0-4.8-2.2-4.8-4.8V59.5c-1.3-0.9-2.1-2.4-2.1-4V40.2c0-2.7,2.2-4.8,4.8-4.8h1.6v-4
					c0-2.5,2-4.5,4.5-4.5c2,0,3.7,1.3,4.3,3.1c0.2-0.7,0.6-1.3,1.1-1.8c0.9-0.8,2-1.3,3.2-1.3c2,0,3.6,1.3,4.2,3
					c0.6-1.8,2.3-3.1,4.3-3.1c2.5,0,4.5,2,4.5,4.5v4h33.2v-4c0-1.2,0.5-2.3,1.3-3.2c0.9-0.8,2-1.3,3.2-1.3c2,0,3.6,1.3,4.2,3
					c0.2-0.7,0.6-1.3,1.1-1.8c0.9-0.8,2-1.3,3.2-1.3c2,0,3.6,1.3,4.2,3c0.2-0.7,0.6-1.3,1.1-1.8c0.8-0.8,1.9-1.3,3.1-1.3
					c0,0,0.1,0,0.1,0c2.4,0,4.4,2,4.4,4.4v4h1.7c2.7,0,4.8,2.2,4.8,4.8v15.4c0.1,1.6-0.7,3.1-2,4v26.1c3,4.2,4.6,9.2,4.6,14.4
					C150.4,113.8,139.1,125.1,125.3,125.1z M54.5,38c-1.2,0-2.2,1-2.2,2.2v15.4c0,0.9,0.5,1.6,1.3,2l0.8,0.4v62.3
					c0,1.2,1,2.2,2.2,2.2h68.7c12.3,0,22.4-10,22.4-22.4c0-4.8-1.5-9.4-4.3-13.2l-0.3-0.4V57.9l0.8-0.4c0.8-0.4,1.2-1.1,1.2-1.9
					l0-0.1V40.2c0-1.2-1-2.2-2.2-2.2h-4.4v-6.6c0-1-0.8-1.8-1.8-1.8l0,0c-0.5,0-0.9,0.2-1.3,0.5c-0.3,0.3-0.5,0.8-0.5,1.3V38H130
					v-6.6c0-1-0.8-1.8-1.8-1.8l0,0c-0.5,0-0.9,0.2-1.3,0.5c-0.3,0.3-0.5,0.8-0.5,1.3V38h-4.9v-6.6c0-1-0.8-1.8-1.8-1.8l0,0
					c-0.5,0-0.9,0.2-1.3,0.5c-0.3,0.3-0.5,0.8-0.5,1.3V38H79.4v-6.6c0-1-0.8-1.8-1.8-1.8c-1,0-1.8,0.8-1.8,1.8V38h-4.9v-6.6
					c0-1-0.8-1.8-1.8-1.8l0,0c-0.5,0-0.9,0.2-1.3,0.5c-0.3,0.3-0.5,0.8-0.5,1.3V38h-4.9v-6.6c0-1-0.8-1.8-1.8-1.8
					c-1,0-1.8,0.8-1.8,1.8V38H54.5z"/>
				<path class="st8" d="M125.3,126.3H56.6c-3.3,0-6.1-2.7-6.1-6.1V60.1c-1.3-1.1-2.1-2.8-2.1-4.6V40.2c0-3.3,2.7-6.1,6.1-6.1h0.4
					v-2.8c0-3.1,2.6-5.7,5.7-5.7c1.7,0,3.2,0.7,4.3,1.9c0.1-0.1,0.2-0.2,0.2-0.2c1.1-1.1,2.5-1.6,4.1-1.6c1.6,0,3.1,0.7,4.2,1.9
					c1.1-1.2,2.6-1.9,4.3-1.9c3.2,0,5.7,2.5,5.7,5.7v2.8H114v-2.8c0-1.5,0.6-3,1.7-4c1.1-1.1,2.5-1.6,4.1-1.6c1.6,0,3.1,0.7,4.2,1.9
					c0.1-0.1,0.2-0.2,0.3-0.3c1.1-1.1,2.6-1.6,4.1-1.6c1.6,0,3.1,0.7,4.2,1.9c0.1-0.1,0.2-0.2,0.3-0.3c1.1-1,2.5-1.6,4-1.6l0.1,0
					c3.1,0,5.6,2.5,5.6,5.7v2.8h0.5c3.3,0,6.1,2.7,6.1,6.1v15.3c0.1,1.8-0.7,3.4-2,4.6v25.1c3,4.4,4.6,9.5,4.6,14.8
					C151.6,114.5,139.8,126.3,125.3,126.3z M54.5,36.6c-2,0-3.6,1.6-3.6,3.6v15.4c0,1.2,0.6,2.3,1.6,3l0.5,0.4v61.3
					c0,2,1.6,3.6,3.6,3.6h68.7c13.1,0,23.8-10.7,23.8-23.8c0-4.9-1.5-9.7-4.4-13.7l-0.2-0.3V58.9l0.5-0.4c0.9-0.7,1.5-1.8,1.4-2.9
					l0,0V40.2c0-2-1.6-3.6-3.6-3.6H140v-5.2c0-1.8-1.4-3.2-3.2-3.2l-0.1,0c-0.8,0-1.6,0.3-2.2,0.9c-0.4,0.4-0.6,0.8-0.8,1.3
					l-1.2,3.5l-1.2-3.5c-0.4-1.3-1.7-2.2-3-2.2c-0.9,0-1.7,0.3-2.3,0.9c-0.4,0.4-0.6,0.8-0.8,1.3l-1.2,3.5l-1.2-3.5
					c-0.4-1.3-1.7-2.2-3-2.2c-0.9,0-1.7,0.3-2.3,0.9c-0.6,0.6-1,1.4-1,2.3v5.2H80.8v-5.2c0-1.8-1.4-3.3-3.3-3.3
					c-1.4,0-2.6,0.9-3.1,2.2l-1.2,3.5l-1.2-3.5c-0.4-1.3-1.7-2.2-3-2.2c-0.9,0-1.7,0.3-2.3,0.9c-0.4,0.4-0.6,0.8-0.8,1.3l-1.2,3.5
					l-1.1-3.5c-0.4-1.3-1.6-2.2-3.1-2.2c-1.8,0-3.3,1.5-3.3,3.3v5.2H54.5z M125.3,123.6H56.6c-1.9,0-3.4-1.5-3.4-3.4V58.7l-0.1,0
					c-1.2-0.5-2-1.8-2-3.1V40.2c0-1.9,1.5-3.4,3.4-3.4h3v-5.4c0-1.7,1.4-3,3-3c1.7,0,3,1.3,3,3v5.4H66v-5.4c0-0.8,0.3-1.6,0.9-2.1
					c0.6-0.6,1.4-0.9,2.2-0.9h0c1.6,0,3,1.3,3,3v5.4h2.4v-5.4c0-1.7,1.4-3,3-3c1.7,0,3,1.3,3,3v5.4h36.1v-5.4c0-0.8,0.3-1.6,0.9-2.1
					c0.6-0.6,1.4-0.9,2.2-0.9l0,0c1.6,0,3,1.3,3,3v5.4h2.4v-5.4c0-0.8,0.3-1.6,0.9-2.1c0.6-0.6,1.4-0.9,2.2-0.9l0,0c1.6,0,3,1.3,3,3
					v5.4h2.4v-5.4c0-0.8,0.3-1.6,0.9-2.1c0.6-0.6,1.4-0.9,2.2-0.9l0,0c1.6,0,3,1.3,3,3v5.4h3.1c1.9,0,3.4,1.5,3.4,3.4l0,15.4
					c0.1,1.3-0.7,2.5-1.9,3.1l-0.1,0v27.4l0,0c3,4.1,4.6,8.9,4.6,13.9C148.9,113,138.3,123.6,125.3,123.6z M54.5,39.2
					c-0.5,0-1,0.4-1,1v15.4c0,0.4,0.2,0.7,0.6,0.9l1.5,0.7v63.1c0,0.5,0.4,1,1,1h68.7c11.7,0,21.2-9.5,21.2-21.2
					c0-4.5-1.4-8.8-4.1-12.5l-0.5-0.7V57.1l1.5-0.7c0.3-0.1,0.5-0.4,0.5-0.8l0-0.1l0-15.4c0-0.5-0.4-1-1-1h-5.6v-7.9
					c0-0.3-0.2-0.6-0.6-0.6l0,0c-0.2,0-0.3,0.1-0.4,0.2c-0.1,0.1-0.2,0.2-0.2,0.4v7.9h-7.3v-7.9c0-0.3-0.2-0.6-0.6-0.6l0,0
					c-0.2,0-0.3,0.1-0.4,0.2c-0.1,0.1-0.2,0.2-0.2,0.4v7.9h-7.3v-7.9c0-0.3-0.2-0.6-0.6-0.6l0,0c-0.2,0-0.3,0.1-0.4,0.2
					c-0.1,0.1-0.2,0.2-0.2,0.4v7.9h-41v-7.9c0-0.3-0.3-0.6-0.6-0.6c-0.3,0-0.6,0.3-0.6,0.6v7.9h-7.3v-7.9c0-0.3-0.2-0.6-0.6-0.6l0,0
					c-0.2,0-0.3,0.1-0.4,0.2c-0.1,0.1-0.2,0.2-0.2,0.4v7.9h-7.3v-7.9c0-0.3-0.3-0.6-0.6-0.6c-0.3,0-0.6,0.3-0.6,0.6v7.9H54.5z"/>
			</g>
		</g>
		<path class="st9" d="M143,37.7h-4.1V44c0,1.2-0.9,2.1-2.1,2.2c-1.1,0-2.1-0.9-2.2-2.1v-6.4h-4.3V44c0,1.2-0.9,2.1-2.1,2.2
			c-1.1,0-2.1-0.9-2.2-2.1v-6.4h-4.3V44c0,1.2-0.9,2.1-2.1,2.2c-1.1,0-2.1-0.9-2.2-2.1v-6.4h-38V44c0,1.2-0.9,2.1-2.1,2.1
			c-1.2,0-2.1-0.9-2.1-2.1v-6.3h-4.2V44c0,1.2-0.9,2.1-2.1,2.1c-1.2,0-2.1-0.9-2.1-2.1v-6.3h-4.3V44c0,1.2-0.9,2.1-2.1,2.1
			s-2.1-0.9-2.1-2.1v-6.3h-3.9c-1.4,0-2.5,1.1-2.5,2.5v15.4c0,1.4,1.1,2.5,2.5,2.5H143c1.4,0,2.5-1.1,2.5-2.5V40.2
			C145.5,38.8,144.4,37.7,143,37.7L143,37.7z M143,37.7"/>
		<path class="st10" d="M102.6,100c0-12.6,10.2-22.7,22.7-22.7c7.1,0,13.8,3.3,18.1,9V58.1H54.1v62.2c0,1.4,1.1,2.5,2.5,2.5h68.7
			C112.8,122.7,102.6,112.6,102.6,100L102.6,100z M102.6,100"/>
		<path class="st11" d="M148,100c0,12.5-10.2,22.7-22.7,22.7c-12.5,0-22.7-10.2-22.7-22.7s10.2-22.7,22.7-22.7
			C137.8,77.3,148,87.5,148,100L148,100z M148,100"/>
		<path class="st12" d="M142.9,100c0,9.7-7.9,17.6-17.6,17.6c-9.7,0-17.6-7.9-17.6-17.6s7.9-17.6,17.6-17.6
			C135,82.4,142.9,90.3,142.9,100L142.9,100z M142.9,100"/>
		<path class="st10" d="M127.4,100c0,1.1-0.9,2-2,2c-1.1,0-2-0.9-2-2s0.9-2,2-2C126.4,98,127.4,98.9,127.4,100L127.4,100z
			 M127.4,100"/>
		<path class="st10" d="M60.5,29.3c1.2,0,2.1,0.9,2.1,2.1V44c0,1.2-0.9,2.1-2.1,2.1s-2.1-0.9-2.1-2.1V31.4
			C58.4,30.2,59.4,29.3,60.5,29.3L60.5,29.3z M60.5,29.3"/>
		<path class="st10" d="M69,29.3c1.2,0,2.1,0.9,2.1,2.1V44c0,1.2-0.9,2.1-2.1,2.1c-1.2,0-2.1-0.9-2.1-2.1V31.4
			C66.9,30.2,67.9,29.3,69,29.3L69,29.3z M69,29.3"/>
		<path class="st10" d="M77.5,29.3c1.2,0,2.1,0.9,2.1,2.1V44c0,1.2-0.9,2.1-2.1,2.1c-1.2,0-2.1-0.9-2.1-2.1V31.4
			C75.4,30.2,76.4,29.3,77.5,29.3L77.5,29.3z M77.5,29.3"/>
		<path class="st10" d="M119.7,29.3c1.2,0,2.1,0.9,2.1,2.1V44c0,1.2-0.9,2.1-2.1,2.1s-2.1-0.9-2.1-2.1V31.4
			C117.6,30.2,118.6,29.3,119.7,29.3L119.7,29.3z M119.7,29.3"/>
		<path class="st10" d="M128.2,29.3c1.2,0,2.1,0.9,2.1,2.1V44c0,1.2-0.9,2.1-2.1,2.1c-1.2,0-2.1-0.9-2.1-2.1V31.4
			C126.1,30.2,127,29.3,128.2,29.3L128.2,29.3z M128.2,29.3"/>
		<path class="st10" d="M136.7,29.3c1.2,0,2.1,0.9,2.1,2.1V44c0,1.2-0.9,2.1-2.1,2.1c-1.2,0-2.1-0.9-2.1-2.1V31.4
			C134.6,30.2,135.5,29.3,136.7,29.3L136.7,29.3z M136.7,29.3"/>
		<path class="st13" d="M90.1,66.3h4.6c1,0,1.9,0.8,1.9,1.9v4.6c0,1-0.8,1.9-1.9,1.9h-4.6c-1,0-1.9-0.8-1.9-1.9v-4.6
			C88.2,67.1,89,66.3,90.1,66.3L90.1,66.3z M90.1,66.3"/>
		<path class="st13" d="M102.6,66.3h4.6c1,0,1.9,0.8,1.9,1.9v4.6c0,1-0.8,1.9-1.9,1.9h-4.6c-1,0-1.9-0.8-1.9-1.9v-4.6
			C100.7,67.1,101.6,66.3,102.6,66.3L102.6,66.3z M102.6,66.3"/>
		<path class="st14" d="M115.1,66.3h4.6c1,0,1.9,0.8,1.9,1.9v4.6c0,1-0.8,1.9-1.9,1.9h-4.6c-1,0-1.9-0.8-1.9-1.9v-4.6
			C113.2,67.1,114.1,66.3,115.1,66.3L115.1,66.3z M115.1,66.3"/>
		<path class="st14" d="M65,78.8h4.6c1,0,1.9,0.8,1.9,1.9v4.6c0,1-0.8,1.9-1.9,1.9H65c-1,0-1.9-0.8-1.9-1.9v-4.6
			C63.1,79.7,63.9,78.8,65,78.8L65,78.8z M65,78.8"/>
		<path class="st14" d="M77.5,78.8h4.6c1,0,1.9,0.8,1.9,1.9v4.6c0,1-0.8,1.9-1.9,1.9h-4.6c-1,0-1.9-0.8-1.9-1.9v-4.6
			C75.6,79.7,76.5,78.8,77.5,78.8L77.5,78.8z M77.5,78.8"/>
		<path class="st14" d="M90.1,78.8h4.6c1,0,1.9,0.8,1.9,1.9v4.6c0,1-0.8,1.9-1.9,1.9h-4.6c-1,0-1.9-0.8-1.9-1.9v-4.6
			C88.2,79.7,89,78.8,90.1,78.8L90.1,78.8z M90.1,78.8"/>
		<path class="st13" d="M65,91.3h4.6c1,0,1.9,0.8,1.9,1.9v4.6c0,1-0.8,1.9-1.9,1.9H65c-1,0-1.9-0.8-1.9-1.9v-4.6
			C63.1,92.2,63.9,91.3,65,91.3L65,91.3z M65,91.3"/>
		<path class="st13" d="M77.5,91.3h4.6c1,0,1.9,0.8,1.9,1.9v4.6c0,1-0.8,1.9-1.9,1.9h-4.6c-1,0-1.9-0.8-1.9-1.9v-4.6
			C75.6,92.2,76.5,91.3,77.5,91.3L77.5,91.3z M77.5,91.3"/>
		<path class="st13" d="M90.1,91.3h4.6c1,0,1.9,0.8,1.9,1.9v4.6c0,1-0.8,1.9-1.9,1.9h-4.6c-1,0-1.9-0.8-1.9-1.9v-4.6
			C88.2,92.2,89,91.3,90.1,91.3L90.1,91.3z M90.1,91.3"/>
		<path class="st13" d="M65,103.9h4.6c1,0,1.9,0.8,1.9,1.9v4.6c0,1-0.8,1.9-1.9,1.9H65c-1,0-1.9-0.8-1.9-1.9v-4.6
			C63.1,104.7,63.9,103.9,65,103.9L65,103.9z M65,103.9"/>
		<path class="st13" d="M77.5,103.9h4.6c1,0,1.9,0.8,1.9,1.9v4.6c0,1-0.8,1.9-1.9,1.9h-4.6c-1,0-1.9-0.8-1.9-1.9v-4.6
			C75.6,104.7,76.5,103.9,77.5,103.9L77.5,103.9z M77.5,103.9"/>
		<path class="st13" d="M90.1,103.9h4.6c1,0,1.9,0.8,1.9,1.9v4.6c0,1-0.8,1.9-1.9,1.9h-4.6c-1,0-1.9-0.8-1.9-1.9v-4.6
			C88.2,104.7,89,103.9,90.1,103.9L90.1,103.9z M90.1,103.9"/>
		<path class="st14" d="M127.6,66.3h4.6c1,0,1.9,0.8,1.9,1.9v4.6c0,1-0.8,1.9-1.9,1.9h-4.6c-1,0-1.9-0.8-1.9-1.9v-4.6
			C125.8,67.1,126.6,66.3,127.6,66.3L127.6,66.3z M127.6,66.3"/>
		<path class="st13" d="M109.1,84.2v-3.5c0-1-0.9-1.9-1.9-1.9h-4.6c-1,0-1.9,0.9-1.9,1.9v4.6c0,1,0.9,1.9,1.9,1.9h4
			C107.4,86.1,108.2,85.1,109.1,84.2L109.1,84.2z M109.1,84.2"/>
		<path class="st8" d="M60.5,47.1c-1.7,0-3.1-1.4-3.1-3.1V31.4c0-1.7,1.4-3.1,3.1-3.1c1.8,0,3.1,1.4,3.1,3.1V44
			C63.7,45.7,62.3,47.1,60.5,47.1L60.5,47.1z M60.5,30.3c-0.6,0-1.1,0.5-1.1,1.1V44c0,0.6,0.5,1.1,1.1,1.1s1.1-0.5,1.1-1.1V31.4
			C61.6,30.8,61.2,30.3,60.5,30.3L60.5,30.3z M60.5,30.3"/>
		<path class="st8" d="M69,47.1c-1.7,0-3.1-1.4-3.1-3.1V31.4c0-1.7,1.4-3.1,3.2-3.1c1.7,0,3.1,1.4,3.1,3.1V44
			C72.2,45.7,70.8,47.1,69,47.1L69,47.1z M69,30.3c-0.6,0-1.1,0.5-1.1,1.1V44c0,0.6,0.5,1.1,1.1,1.1c0.6,0,1.1-0.5,1.1-1.1V31.4
			C70.1,30.8,69.7,30.3,69,30.3L69,30.3z M69,30.3"/>
		<path class="st8" d="M77.5,47.1c-1.7,0-3.1-1.4-3.1-3.1V31.4c0-1.7,1.4-3.1,3.1-3.1s3.1,1.4,3.1,3.1V44
			C80.7,45.7,79.3,47.1,77.5,47.1L77.5,47.1z M77.5,30.3c-0.6,0-1.1,0.5-1.1,1.1V44c0,0.6,0.5,1.1,1.1,1.1s1.1-0.5,1.1-1.1V31.4
			C78.6,30.8,78.1,30.3,77.5,30.3L77.5,30.3z M77.5,30.3"/>
		<path class="st8" d="M119.7,47.1c-1.7,0-3.1-1.4-3.1-3.1V31.4c0-1.7,1.4-3.1,3.2-3.1c1.7,0,3.1,1.4,3.1,3.1V44
			C122.9,45.7,121.5,47.1,119.7,47.1L119.7,47.1z M119.7,30.3c-0.6,0-1.1,0.5-1.1,1.1V44c0,0.6,0.5,1.1,1.1,1.1
			c0.6,0,1.1-0.5,1.1-1.1V31.4C120.8,30.8,120.3,30.3,119.7,30.3L119.7,30.3z M119.7,30.3"/>
		<path class="st8" d="M128.2,47.1c-1.7,0-3.1-1.4-3.1-3.1V31.4c0-1.7,1.4-3.1,3.2-3.1c1.7,0,3.1,1.4,3.1,3.1V44
			C131.4,45.7,129.9,47.1,128.2,47.1L128.2,47.1z M128.2,30.3c-0.6,0-1.1,0.5-1.1,1.1V44c0,0.6,0.5,1.1,1.1,1.1
			c0.6,0,1.1-0.5,1.1-1.1V31.4C129.3,30.8,128.8,30.3,128.2,30.3L128.2,30.3z M128.2,30.3"/>
		<path class="st8" d="M136.7,47.1c-1.7,0-3.1-1.4-3.1-3.1V31.4c0-1.7,1.4-3.1,3.2-3.1c1.7,0,3.1,1.4,3.1,3.1V44
			C139.8,45.7,138.4,47.1,136.7,47.1L136.7,47.1z M136.7,30.3c-0.6,0-1.1,0.5-1.1,1.1V44c0,0.6,0.5,1.1,1.1,1.1
			c0.6,0,1.1-0.5,1.1-1.1V31.4C137.8,30.8,137.3,30.3,136.7,30.3L136.7,30.3z M136.7,30.3"/>
		<path class="st8" d="M143,59.1H54.5c-2,0-3.5-1.6-3.5-3.5V40.2c0-2,1.6-3.5,3.5-3.5h3.9c0.6,0,1,0.4,1,1V44c0,0.6,0.5,1.1,1.1,1.1
			s1.1-0.5,1.1-1.1v-6.3c0-0.6,0.4-1,1-1h4.3c0.6,0,1,0.4,1,1V44c0,0.6,0.5,1.1,1.1,1.1c0.6,0,1.1-0.5,1.1-1.1v-6.3c0-0.6,0.4-1,1-1
			h4.3c0.6,0,1,0.4,1,1V44c0,0.6,0.5,1.1,1.1,1.1s1.1-0.5,1.1-1.1v-6.3c0-0.6,0.4-1,1-1h38c0.6,0,1,0.4,1,1V44
			c0,0.6,0.5,1.1,1.1,1.1c0.6,0,1.1-0.5,1.1-1.1v-6.3c0-0.6,0.5-1,1-1h4.3c0.6,0,1,0.4,1,1V44c0,0.6,0.5,1.1,1.1,1.1
			c0.6,0,1.1-0.5,1.1-1.1v-6.3c0-0.6,0.4-1,1-1h4.3c0.6,0,1,0.4,1,1V44c0,0.6,0.5,1.1,1.1,1.1c0.6,0,1.1-0.5,1.1-1.1v-6.3
			c0-0.6,0.4-1,1-1h4.2c2,0,3.5,1.6,3.5,3.5v15.4C146.5,57.5,144.9,59.1,143,59.1L143,59.1z M54.5,38.7c-0.8,0-1.5,0.7-1.5,1.5v15.4
			c0,0.8,0.7,1.5,1.5,1.5H143c0.8,0,1.5-0.7,1.5-1.5V40.2c0-0.8-0.7-1.5-1.5-1.5h-3.1V44c0,1.7-1.4,3.1-3.1,3.2
			c-1.7,0-3.1-1.4-3.2-3.1c0,0,0,0,0-0.1v-5.3h-2.2V44c0,1.7-1.4,3.1-3.1,3.2c-1.7,0-3.1-1.4-3.2-3.1c0,0,0,0,0-0.1v-5.3h-2.2V44
			c0,1.7-1.4,3.1-3.1,3.2c-1.7,0-3.1-1.4-3.2-3.1c0,0,0,0,0-0.1v-5.3H80.7V44c0,1.7-1.4,3.1-3.1,3.1c-1.8,0-3.1-1.4-3.1-3.1v-5.3
			h-2.2V44c0,1.7-1.4,3.1-3.1,3.2c-1.7,0-3.1-1.4-3.2-3.1c0,0,0,0,0-0.1v-5.3h-2.2V44c0,1.7-1.4,3.1-3.1,3.1c-1.7,0-3.1-1.4-3.1-3.1
			v-5.3H54.5z M54.5,38.7"/>
		<path class="st8" d="M110,48.9H87.5c-0.6,0-1-0.4-1-1c0-0.6,0.4-1,1-1H110c0.6,0,1,0.4,1,1C111,48.4,110.6,48.9,110,48.9L110,48.9
			z M110,48.9"/>
		<path class="st8" d="M94.7,75.6h-4.6c-1.6,0-2.9-1.3-2.9-2.9v-4.6c0-1.6,1.3-2.9,2.9-2.9h4.6c1.6,0,2.9,1.3,2.9,2.9v4.6
			C97.5,74.3,96.3,75.6,94.7,75.6L94.7,75.6z M90.1,67.3c-0.4,0-0.9,0.4-0.9,0.9v4.6c0,0.4,0.4,0.9,0.9,0.9h4.6
			c0.4,0,0.9-0.4,0.9-0.9v-4.6c0-0.4-0.4-0.9-0.9-0.9H90.1z M90.1,67.3"/>
		<path class="st8" d="M107.2,75.6h-4.6c-1.6,0-2.9-1.3-2.9-2.9v-4.6c0-1.6,1.3-2.9,2.9-2.9h4.6c1.6,0,2.9,1.3,2.9,2.9v4.6
			C110.1,74.3,108.8,75.6,107.2,75.6L107.2,75.6z M102.6,67.3c-0.4,0-0.9,0.4-0.9,0.9v4.6c0,0.4,0.4,0.9,0.9,0.9h4.6
			c0.4,0,0.9-0.4,0.9-0.9v-4.6c0-0.4-0.4-0.9-0.9-0.9H102.6z M102.6,67.3"/>
		<path class="st8" d="M119.8,75.6h-4.6c-1.6,0-2.9-1.3-2.9-2.9v-4.6c0-1.6,1.3-2.9,2.9-2.9h4.6c1.6,0,2.9,1.3,2.9,2.9v4.6
			C122.6,74.4,121.3,75.6,119.8,75.6L119.8,75.6z M115.1,67.3c-0.4,0-0.9,0.4-0.9,0.9v4.6c0,0.4,0.4,0.9,0.9,0.9h4.6
			c0.5,0,0.9-0.4,0.9-0.9v-4.6c0-0.4-0.4-0.9-0.9-0.9H115.1z M115.1,67.3"/>
		<path class="st8" d="M69.6,88.2H65c-1.6,0-2.9-1.3-2.9-2.9v-4.6c0-1.6,1.3-2.9,2.9-2.9h4.6c1.6,0,2.9,1.3,2.9,2.9v4.6
			C72.5,86.9,71.2,88.2,69.6,88.2L69.6,88.2z M65,79.8c-0.5,0-0.9,0.4-0.9,0.9v4.6c0,0.4,0.4,0.9,0.9,0.9h4.6c0.4,0,0.9-0.4,0.9-0.9
			v-4.6c0-0.4-0.4-0.9-0.9-0.9H65z M65,79.8"/>
		<path class="st8" d="M82.1,88.2h-4.6c-1.6,0-2.9-1.3-2.9-2.9v-4.6c0-1.6,1.3-2.9,2.9-2.9h4.6c1.6,0,2.9,1.3,2.9,2.9v4.6
			C85,86.9,83.7,88.2,82.1,88.2L82.1,88.2z M77.5,79.8c-0.4,0-0.9,0.4-0.9,0.9v4.6c0,0.4,0.4,0.9,0.9,0.9h4.6c0.5,0,0.9-0.4,0.9-0.9
			v-4.6c0-0.4-0.4-0.9-0.9-0.9H77.5z M77.5,79.8"/>
		<path class="st8" d="M94.7,88.2h-4.6c-1.6,0-2.9-1.3-2.9-2.9v-4.6c0-1.6,1.3-2.9,2.9-2.9h4.6c1.6,0,2.9,1.3,2.9,2.9v4.6
			C97.5,86.9,96.3,88.2,94.7,88.2L94.7,88.2z M90.1,79.8c-0.4,0-0.9,0.4-0.9,0.9v4.6c0,0.4,0.4,0.9,0.9,0.9h4.6
			c0.4,0,0.9-0.4,0.9-0.9v-4.6c0-0.4-0.4-0.9-0.9-0.9H90.1z M90.1,79.8"/>
		<path class="st8" d="M69.6,100.7H65c-1.6,0-2.9-1.3-2.9-2.9v-4.6c0-1.6,1.3-2.9,2.9-2.9h4.6c1.6,0,2.9,1.3,2.9,2.9v4.6
			C72.5,99.4,71.2,100.7,69.6,100.7L69.6,100.7z M65,92.4c-0.5,0-0.9,0.4-0.9,0.9v4.6c0,0.5,0.4,0.9,0.9,0.9h4.6
			c0.4,0,0.9-0.4,0.9-0.9v-4.6c0-0.4-0.4-0.9-0.9-0.9H65z M65,92.4"/>
		<path class="st8" d="M82.1,100.7h-4.6c-1.6,0-2.9-1.3-2.9-2.9v-4.6c0-1.6,1.3-2.9,2.9-2.9h4.6c1.6,0,2.9,1.3,2.9,2.9v4.6
			C85,99.4,83.7,100.7,82.1,100.7L82.1,100.7z M77.5,92.4c-0.4,0-0.9,0.4-0.9,0.9v4.6c0,0.5,0.4,0.9,0.9,0.9h4.6
			c0.5,0,0.9-0.4,0.9-0.9v-4.6c0-0.4-0.4-0.9-0.9-0.9H77.5z M77.5,92.4"/>
		<path class="st8" d="M94.7,100.7h-4.6c-1.6,0-2.9-1.3-2.9-2.9v-4.6c0-1.6,1.3-2.9,2.9-2.9h4.6c1.6,0,2.9,1.3,2.9,2.9v4.6
			C97.5,99.4,96.3,100.7,94.7,100.7L94.7,100.7z M90.1,92.4c-0.4,0-0.9,0.4-0.9,0.9v4.6c0,0.5,0.4,0.9,0.9,0.9h4.6
			c0.4,0,0.9-0.4,0.9-0.9v-4.6c0-0.4-0.4-0.9-0.9-0.9H90.1z M90.1,92.4"/>
		<path class="st8" d="M69.6,113.3H65c-1.6,0-2.9-1.3-2.9-2.9v-4.6c0-1.6,1.3-2.9,2.9-2.9h4.6c1.6,0,2.9,1.3,2.9,2.9v4.6
			C72.5,112,71.2,113.3,69.6,113.3L69.6,113.3z M65,104.9c-0.5,0-0.9,0.4-0.9,0.9v4.6c0,0.4,0.4,0.9,0.9,0.9h4.6
			c0.4,0,0.9-0.4,0.9-0.9v-4.6c0-0.4-0.4-0.9-0.9-0.9H65z M65,104.9"/>
		<path class="st8" d="M82.1,113.3h-4.6c-1.6,0-2.9-1.3-2.9-2.9v-4.6c0-1.6,1.3-2.9,2.9-2.9h4.6c1.6,0,2.9,1.3,2.9,2.9v4.6
			C85,112,83.7,113.3,82.1,113.3L82.1,113.3z M77.5,104.9c-0.4,0-0.9,0.4-0.9,0.9v4.6c0,0.4,0.4,0.9,0.9,0.9h4.6
			c0.5,0,0.9-0.4,0.9-0.9v-4.6c0-0.4-0.4-0.9-0.9-0.9H77.5z M77.5,104.9"/>
		<path class="st8" d="M94.7,113.3h-4.6c-1.6,0-2.9-1.3-2.9-2.9v-4.6c0-1.6,1.3-2.9,2.9-2.9h4.6c1.6,0,2.9,1.3,2.9,2.9v4.6
			C97.5,112,96.3,113.3,94.7,113.3L94.7,113.3z M90.1,104.9c-0.4,0-0.9,0.4-0.9,0.9v4.6c0,0.4,0.4,0.9,0.9,0.9h4.6
			c0.4,0,0.9-0.4,0.9-0.9v-4.6c0-0.4-0.4-0.9-0.9-0.9H90.1z M90.1,104.9"/>
		<path class="st8" d="M132.3,75.6h-4.6c-1.6,0-2.9-1.3-2.9-2.9v-4.6c0-1.6,1.3-2.9,2.9-2.9h4.6c1.6,0,2.9,1.3,2.9,2.9v4.6
			C135.2,74.3,133.9,75.6,132.3,75.6L132.3,75.6z M127.6,67.3c-0.4,0-0.9,0.4-0.9,0.9v4.6c0,0.4,0.4,0.9,0.9,0.9h4.6
			c0.4,0,0.9-0.4,0.9-0.9v-4.6c0-0.4-0.4-0.9-0.9-0.9H127.6z M127.6,67.3"/>
		<path class="st8" d="M106.6,88.2h-4c-1.6,0-2.9-1.3-2.9-2.9v-4.6c0-1.6,1.3-2.9,2.9-2.9h4.6c1.6,0,2.9,1.3,2.9,2.9v3.5
			c0,0.3-0.1,0.5-0.3,0.7c-0.9,0.9-1.6,1.8-2.3,2.9C107.3,88,107,88.2,106.6,88.2L106.6,88.2z M102.6,79.8c-0.4,0-0.9,0.4-0.9,0.9
			v4.6c0,0.4,0.4,0.9,0.9,0.9h3.5c0.6-0.8,1.3-1.6,2-2.4v-3.1c0-0.4-0.4-0.9-0.9-0.9H102.6z M102.6,79.8"/>
		<path class="st8" d="M125.3,123.7H56.6c-2,0-3.5-1.6-3.5-3.5V58.1c0-0.6,0.4-1,1-1h89.4c0.6,0,1,0.4,1,1v28.3c0,0.6-0.4,1-1,1
			c-0.3,0-0.6-0.2-0.8-0.4c-7.2-9.5-20.8-11.5-30.3-4.2c-9.5,7.2-11.5,20.8-4.2,30.3c4.1,5.4,10.5,8.6,17.3,8.6c0.6,0,1,0.4,1,1
			S125.9,123.7,125.3,123.7L125.3,123.7z M55.1,59.1v61.1c0,0.8,0.7,1.5,1.5,1.5h59.1c-12-5.3-17.4-19.3-12-31.3
			c3.8-8.5,12.3-14.1,21.7-14.1c6.5,0,12.6,2.6,17.1,7.2V59.1H55.1z M55.1,59.1"/>
		<path class="st8" d="M125.3,98.7c-0.6,0-1-0.5-1-1V86.4c0-0.6,0.4-1,1-1c0.6,0,1,0.4,1,1v11.2C126.3,98.3,125.9,98.7,125.3,98.7
			L125.3,98.7z M125.3,98.7"/>
		<path class="st8" d="M117.5,107.7c-0.6,0-1-0.5-1-1c0-0.3,0.1-0.6,0.4-0.8l6.3-5.3c0.4-0.4,1.1-0.3,1.4,0.1
			c0.4,0.5,0.3,1.1-0.1,1.4l-6.3,5.3C117.9,107.6,117.7,107.7,117.5,107.7L117.5,107.7z M117.5,107.7"/>
		<path class="st8" d="M116.3,73.6c-0.3,0-0.6-0.1-0.7-0.3l-1.7-1.9c-0.4-0.4-0.4-1.1,0.1-1.4c0.4-0.4,1.1-0.4,1.4,0.1l1,1.1
			l3.2-3.2c0.4-0.4,1.1-0.4,1.4,0c0.4,0.4,0.4,1,0,1.4l-3.9,3.9C116.8,73.5,116.6,73.6,116.3,73.6L116.3,73.6z M116.3,73.6"/>
		<path class="st8" d="M129,73.6c-0.3,0-0.6-0.1-0.7-0.3l-1.7-1.9c-0.4-0.4-0.4-1.1,0.1-1.4c0.4-0.4,1.1-0.4,1.4,0.1l1,1.1l3.2-3.2
			c0.4-0.4,1.1-0.4,1.4,0c0.4,0.4,0.4,1,0,1.4l-3.9,3.9C129.5,73.5,129.2,73.6,129,73.6L129,73.6z M129,73.6"/>
		<path class="st8" d="M66.4,85.9c-0.3,0-0.6-0.1-0.7-0.3l-1.7-1.9c-0.4-0.4-0.4-1.1,0.1-1.4c0.4-0.4,1.1-0.4,1.4,0.1l1,1.1l3.2-3.2
			c0.4-0.4,1-0.4,1.4,0c0.4,0.4,0.4,1,0,1.4c0,0,0,0,0,0l-3.9,3.9C66.9,85.8,66.7,85.9,66.4,85.9L66.4,85.9z M66.4,85.9"/>
		<path class="st8" d="M78.7,85.9c-0.3,0-0.6-0.1-0.7-0.3l-1.7-1.9c-0.4-0.4-0.4-1.1,0.1-1.4c0.4-0.4,1.1-0.4,1.4,0.1l1,1.1l3.2-3.2
			c0.4-0.4,1-0.4,1.4,0s0.4,1,0,1.4c0,0,0,0,0,0l-3.9,3.9C79.2,85.8,78.9,85.9,78.7,85.9L78.7,85.9z M78.7,85.9"/>
		<path class="st8" d="M91.3,85.9c-0.3,0-0.6-0.1-0.7-0.3l-1.7-1.9c-0.4-0.4-0.4-1.1,0.1-1.4c0.4-0.4,1.1-0.4,1.4,0.1l1,1.1l3.2-3.2
			c0.4-0.4,1-0.4,1.4,0s0.4,1,0,1.4c0,0,0,0,0,0l-3.9,3.9C91.9,85.8,91.6,85.9,91.3,85.9L91.3,85.9z M91.3,85.9"/>
		<path class="st8" d="M125.3,123.7c-13.1,0-23.7-10.6-23.7-23.7s10.6-23.7,23.7-23.7S149,86.9,149,100S138.4,123.7,125.3,123.7
			L125.3,123.7z M125.3,78.3c-12,0-21.7,9.7-21.7,21.7s9.7,21.7,21.7,21.7c12,0,21.7-9.7,21.7-21.7S137.3,78.3,125.3,78.3
			L125.3,78.3z M125.3,78.3"/>
		<path class="st8" d="M125.3,118.6c-10.3,0-18.6-8.3-18.6-18.6s8.3-18.6,18.6-18.6c10.3,0,18.6,8.3,18.6,18.6
			S135.6,118.6,125.3,118.6L125.3,118.6z M125.3,83.5c-9.2,0-16.6,7.4-16.6,16.6s7.4,16.6,16.6,16.6c9.2,0,16.6-7.4,16.6-16.6
			S134.5,83.5,125.3,83.5L125.3,83.5z M125.3,83.5"/>
		<path class="st8" d="M125.3,103.1c-1.7,0-3.1-1.4-3.1-3.1c0-1.7,1.4-3.1,3.1-3.1c1.7,0,3.1,1.4,3.1,3.1
			C128.4,101.7,127,103.1,125.3,103.1L125.3,103.1z M125.3,99c-0.6,0-1,0.4-1,1s0.4,1,1,1c0.6,0,1-0.4,1-1S125.9,99,125.3,99
			L125.3,99z M125.3,99"/>
	</g>
</g>
</svg>
