<?xml version="1.0" encoding="utf-8"?>
<!-- Generator: Adobe Illustrator 22.0.1, SVG Export Plug-In . SVG Version: 6.00 Build 0)  -->
<svg version="1.1" id="Capa_1" xmlns="http://www.w3.org/2000/svg" xmlns:xlink="http://www.w3.org/1999/xlink" x="0px" y="0px"
	 viewBox="0 0 200 200" style="enable-background:new 0 0 200 200;" xml:space="preserve">
<style type="text/css">
	.st0{fill:#D0DFE8;}
	.st1{fill:#D3843B;}
	.st2{fill:#80C9C9;}
	.st3{fill:#1C5D86;}
	.st4{fill:#F5BF9B;}
	.st5{fill:#231F20;}
</style>
<g>
	<path class="st0" d="M4.3,116.5h191.4v46.2H4.3V116.5z"/>
	<g>
		<path class="st1" d="M10.9,162.7h13.2v19.8H10.9V162.7z"/>
		<path class="st1" d="M175.9,162.7h13.2v19.8h-13.2V162.7z"/>
	</g>
	<path class="st0" d="M20.8,37.3h158.4v52.8H20.8V37.3z"/>
	<path class="st2" d="M24.1,90.1h151.8c7.3,0,13.2,5.9,13.2,13.2v13.2l0,0H10.9l0,0v-13.2C10.9,96,16.8,90.1,24.1,90.1z"/>
	<g>
		<path class="st3" d="M50.5,57.1h26.4c7.3,0,13.2,5.9,13.2,13.2v6.6c0,7.3-5.9,13.2-13.2,13.2H50.5c-7.3,0-13.2-5.9-13.2-13.2v-6.6
			C37.3,63,43.2,57.1,50.5,57.1z"/>
		<path class="st3" d="M123.1,57.1h26.4c7.3,0,13.2,5.9,13.2,13.2v6.6c0,7.3-5.9,13.2-13.2,13.2h-26.4c-7.3,0-13.2-5.9-13.2-13.2
			v-6.6C109.9,63,115.8,57.1,123.1,57.1z"/>
		<path class="st3" d="M30.7,152.8H17.5c-1.8,0-3.3-1.5-3.3-3.3s1.5-3.3,3.3-3.3h13.2c1.8,0,3.3,1.5,3.3,3.3S32.5,152.8,30.7,152.8z
			"/>
		<path class="st3" d="M182.5,152.8H43.9c-1.8,0-3.3-1.5-3.3-3.3s1.5-3.3,3.3-3.3h138.6c1.8,0,3.3,1.5,3.3,3.3
			S184.3,152.8,182.5,152.8z"/>
	</g>
	<g>
		<circle class="st4" cx="30.7" cy="27.4" r="9.9"/>
		<circle class="st4" cx="169.3" cy="27.4" r="9.9"/>
	</g>
	<g>
		<path class="st5" d="M195.7,113.2h-3.3v-9.9c0-6.6-3.9-12.5-9.9-15.1V37.3c0-1.3-0.8-2.5-2-3c1.3-2.1,2-4.4,2-6.9
			c0-7.3-5.9-13.2-13.2-13.2s-13.2,5.9-13.2,13.2c0,2.3,0.6,4.6,1.8,6.6H42.1c1.2-2,1.8-4.3,1.8-6.6c0-7.3-5.9-13.2-13.2-13.2
			s-13.2,5.9-13.2,13.2c0,2.4,0.7,4.8,2,6.9c-1.2,0.5-2,1.7-2,3v50.9c-6,2.6-9.9,8.5-9.9,15.1v9.9H4.3c-1.8,0-3.3,1.5-3.3,3.3v46.2
			c0,1.8,1.5,3.3,3.3,3.3h3.3v16.5c0,1.8,1.5,3.3,3.3,3.3h13.2c1.8,0,3.3-1.5,3.3-3.3V166h145.2v16.5c0,1.8,1.5,3.3,3.3,3.3h13.2
			c1.8,0,3.3-1.5,3.3-3.3V166h3.3c1.8,0,3.3-1.5,3.3-3.3v-46.2C199,114.7,197.5,113.2,195.7,113.2z M169.3,20.8c3.6,0,6.6,3,6.6,6.6
			s-3,6.6-6.6,6.6c-3.6,0-6.6-3-6.6-6.6S165.7,20.8,169.3,20.8z M30.7,20.8c3.6,0,6.6,3,6.6,6.6s-3,6.6-6.6,6.6
			c-3.6,0-6.6-3-6.6-6.6S27.1,20.8,30.7,20.8z M24.1,40.6h151.8v46.2h-13.3c2.2-2.8,3.4-6.3,3.4-9.9v-6.6c0-9.1-7.4-16.5-16.5-16.5
			h-26.4c-9.1,0-16.5,7.4-16.5,16.5v6.6c0,3.6,1.2,7.1,3.4,9.9H90c2.2-2.8,3.4-6.3,3.4-9.9v-6.6c0-9.1-7.4-16.5-16.5-16.5H50.5
			c-9.1,0-16.5,7.4-16.5,16.5v6.6c0,3.6,1.2,7.1,3.4,9.9H24.1V40.6z M159.4,70.3v6.6c0,5.5-4.4,9.9-9.9,9.9h-26.4
			c-5.5,0-9.9-4.4-9.9-9.9v-6.6c0-5.5,4.4-9.9,9.9-9.9h26.4C155,60.4,159.4,64.8,159.4,70.3z M86.8,70.3v6.6c0,5.5-4.4,9.9-9.9,9.9
			H50.5c-5.5,0-9.9-4.4-9.9-9.9v-6.6c0-5.5,4.4-9.9,9.9-9.9h26.4C82.4,60.4,86.8,64.8,86.8,70.3z M14.2,103.3c0-5.5,4.4-9.9,9.9-9.9
			h151.8c5.5,0,9.9,4.4,9.9,9.9v9.9H14.2V103.3z M20.8,179.2h-6.6V166h6.6V179.2z M185.8,179.2h-6.6V166h6.6V179.2z M192.4,159.4
			H7.6v-39.6h184.8V159.4z"/>
		<path class="st5" d="M17.5,152.8h13.2c1.8,0,3.3-1.5,3.3-3.3s-1.5-3.3-3.3-3.3H17.5c-1.8,0-3.3,1.5-3.3,3.3S15.7,152.8,17.5,152.8
			z"/>
		<path class="st5" d="M43.9,152.8h138.6c1.8,0,3.3-1.5,3.3-3.3s-1.5-3.3-3.3-3.3H43.9c-1.8,0-3.3,1.5-3.3,3.3
			S42.1,152.8,43.9,152.8z"/>
	</g>
</g>
</svg>
