<?xml version="1.0" encoding="utf-8"?>
<!-- Generator: Adobe Illustrator 16.0.0, SVG Export Plug-In . SVG Version: 6.00 Build 0)  -->
<!DOCTYPE svg PUBLIC "-//W3C//DTD SVG 1.1//EN" "http://www.w3.org/Graphics/SVG/1.1/DTD/svg11.dtd">
<svg version="1.1" id="Layer_1" xmlns="http://www.w3.org/2000/svg" xmlns:xlink="http://www.w3.org/1999/xlink" x="0px" y="0px"
	 width="475px" height="104.715px" viewBox="0 0 475 104.715" enable-background="new 0 0 475 104.715" xml:space="preserve">
<g>
	<path fill="#74BFD2" d="M107.285,30.688h10.03v23.08c0,2.237,0.103,3.907,0.309,5.003c0.391,1.732,1.29,3.126,2.7,4.184
		c1.41,1.06,2.905,1.588,4.49,1.588c1.256,0,2.517-0.497,3.782-1.495c1.266-0.996,2.027-2.224,2.284-3.679
		c0.257-1.456,0.385-3.148,0.385-5.083V30.688h10.587v22.407c0,5.107-0.238,8.72-0.711,10.84c-0.473,2.114-1.341,3.895-2.607,5.339
		c-1.266,1.446-2.964,2.603-5.092,3.466c-2.13,0.863-4.914,1.299-8.348,1.299c-4.136,0-7.275-0.469-9.413-1.406
		c-2.14-0.936-3.833-2.154-5.078-3.661c-1.246-1.506-2.064-3.084-2.454-4.733c-0.577-2.442-0.864-6.043-0.864-10.807V30.688z"/>
	<polygon fill="#74BFD2" points="146.337,73.958 146.337,30.688 156.244,30.688 174.299,59.575 174.299,30.688 183.988,30.688 
		183.988,73.958 173.591,73.958 155.842,45.717 155.842,73.958 	"/>
	<rect x="188.453" y="30.781" fill="#74BFD2" width="9.784" height="43.271"/>
	<path fill="#74BFD2" d="M239.037,30.688h-11.543l-14.6,18.641c-0.226,0.295-0.4,0.608-0.545,0.933V30.688h-9.691v43.209h9.691
		V54.02c0.137,0.308,0.303,0.609,0.515,0.895l14.383,18.89h11.417l-16.449-21.604L239.037,30.688z"/>
	<path fill="#416D95" d="M235.524,52.59c0-4.285,0.668-7.865,2.006-10.74c0.987-2.142,2.345-4.061,4.073-5.759
		c1.729-1.694,3.622-2.948,5.681-3.762c2.755-1.112,5.925-1.666,9.506-1.666c6.479,0,11.659,1.918,15.538,5.756
		c3.88,3.839,5.817,9.159,5.817,15.963c0,6.763-1.925,12.05-5.77,15.858c-3.849,3.806-9.002,5.712-15.464,5.712
		c-6.563,0-11.77-1.896-15.616-5.682C237.448,64.481,235.524,59.255,235.524,52.59 M245.277,52.739
		c0,4.384,1.069,7.721,3.209,10.012c2.141,2.291,4.856,3.437,8.148,3.437c3.313,0,6.022-1.132,8.133-3.407
		c2.107-2.271,3.164-5.657,3.164-10.159c0-4.463-1.031-7.795-3.088-9.998c-2.057-2.2-4.794-3.302-8.209-3.302
		c-3.416,0-6.164,1.111-8.24,3.331C246.315,44.875,245.277,48.237,245.277,52.739"/>
	<polygon fill="#416D95" points="282.547,73.958 282.547,30.688 292.454,30.688 310.51,59.575 310.51,30.688 320.198,30.688 
		320.198,73.958 309.8,73.958 292.053,45.717 292.053,73.958 	"/>
	<path fill="#416D95" d="M324.686,73.895V38.188c0.391-5.166,3.631-7.665,9.722-7.501h16.142v9.291h-15.864v7.932h12.807v9.321
		h-12.807v16.664H324.686z"/>
	<path fill="#416D95" d="M351.93,52.633c0-4.274,0.669-7.847,2.007-10.717c0.987-2.139,2.345-4.053,4.073-5.745
		c1.729-1.692,3.622-2.943,5.68-3.756c2.756-1.108,5.926-1.663,9.507-1.663c6.479,0,11.659,1.916,15.538,5.747
		c3.88,3.829,5.818,9.14,5.818,15.928c0,6.75-1.925,12.024-5.771,15.825c-3.848,3.8-9.002,5.7-15.463,5.7
		c-6.563,0-11.77-1.89-15.616-5.673C353.854,64.5,351.93,59.285,351.93,52.633 M361.684,52.783c0,4.375,1.069,7.706,3.208,9.991
		c2.141,2.287,4.856,3.431,8.149,3.431c3.313,0,6.021-1.134,8.132-3.4c2.107-2.266,3.164-5.646,3.164-10.139
		c0-4.455-1.031-7.78-3.087-9.979c-2.058-2.193-4.794-3.294-8.209-3.294c-3.417,0-6.164,1.108-8.241,3.325
		C362.722,44.936,361.684,48.292,361.684,52.783"/>
	<path fill="#416D95" d="M422.782,56.858c-0.17-0.348-0.251-0.741-0.183-1.126c0.117-0.651,0.581-1.272,0.951-1.805
		c0.701-0.997,1.546-1.887,2.407-2.745c2.837-2.84,4.277-6.015,4.319-9.521c0.041-3.508-0.951-6.225-2.979-8.148
		s-4.644-2.864-7.854-2.823h-20.494l0.032,43.144h9.659l0.063-33.546h9.69c1.07-0.042,1.812,0.346,2.222,1.157
		c0.412,0.813,0.235,1.631-0.523,2.454c-0.297,0.328-2.278,2.529-2.974,3.302c-0.806,0.895-4.58,5.087-4.723,5.244
		c-0.56,0.638-0.837,1.461-0.924,2.296c-0.162,1.565,0.28,3.065,1.047,4.423c0.355,0.633,7.888,14.007,8.161,14.488
		c0.04,0.071,0.082,0.145,0.121,0.213l11.852,0.063c-0.14-0.244-0.281-0.487-0.422-0.729
		C431.861,72.556,422.819,56.933,422.782,56.858"/>
	<polygon fill="#416D95" points="443.827,73.927 443.827,40.04 434.724,40.04 434.724,30.687 462.5,30.687 462.5,40.04 
		453.889,40.04 453.889,73.927 	"/>
	<path fill="#416D95" d="M74.999,72.783h11.184l-15.74-20.537l15.78-19.771H75.171L61.427,49.702
		c-0.61,0.788-0.915,1.684-0.915,2.69c0,0.982,0.295,1.87,0.886,2.658L74.999,72.783z"/>
	<path fill="#416D95" d="M28.895,32.421h9.604v20.967c0,2.154,0.096,3.76,0.295,4.815c0.375,1.664,1.236,3.007,2.585,4.023
		c1.35,1.019,2.782,1.527,4.299,1.527c1.201,0,2.41-0.479,3.621-1.438c1.212-0.959,1.938-2.141,2.186-3.539
		c0.246-1.399,0.368-3.03,0.368-4.89V32.421h10.135v20.321c0,4.914-0.225,8.389-0.681,10.426c-0.453,2.036-1.285,3.747-2.496,5.138
		c-1.211,1.39-2.835,2.501-4.875,3.332c-2.039,0.832-4.702,1.248-7.993,1.248c-3.96,0-6.963-0.45-9.013-1.351
		c-2.047-0.9-3.667-2.073-4.859-3.525c-1.192-1.447-1.976-2.965-2.349-4.551c-0.551-2.348-0.828-5.813-0.828-10.395V32.421z"/>
	<path fill="#74BFD2" d="M91.607,61.884C87.448,76.802,73.769,87.75,57.523,87.75c-19.546,0-35.394-15.846-35.394-35.394
		c0-19.547,15.847-35.394,35.394-35.394c17.896,0,32.678,13.282,35.051,30.524H85.88l0.004-7.938L75.715,52.304l10.157,13.354
		l0.003-8.617l16.429,0.006c0.161-1.541,0.244-3.104,0.244-4.69c0-24.867-20.158-45.024-45.025-45.024
		C32.656,7.333,12.5,27.49,12.5,52.357c0,24.866,20.156,45.025,45.023,45.025c21.596,0,39.634-15.209,44.008-35.498H91.607z"/>
</g>
</svg>
