<?xml version="1.0" encoding="utf-8"?>
<!-- Generator: Adobe Illustrator 16.0.0, SVG Export Plug-In . SVG Version: 6.00 Build 0)  -->
<!DOCTYPE svg PUBLIC "-//W3C//DTD SVG 1.1//EN" "http://www.w3.org/Graphics/SVG/1.1/DTD/svg11.dtd">
<svg version="1.1" id="Layer_1" xmlns="http://www.w3.org/2000/svg" xmlns:xlink="http://www.w3.org/1999/xlink" x="0px" y="0px"
	 width="475px" height="104.715px" viewBox="0 0 475 104.715" enable-background="new 0 0 475 104.715" xml:space="preserve">
<g>
	<path fill="#FFFFFF" d="M107.285,30.688h10.03v23.08c0,2.236,0.103,3.906,0.309,5.004c0.391,1.73,1.29,3.125,2.7,4.184
		c1.411,1.059,2.905,1.588,4.49,1.588c1.256,0,2.517-0.498,3.782-1.496c1.266-0.996,2.026-2.225,2.284-3.678
		c0.258-1.457,0.385-3.15,0.385-5.084V30.688h10.587v22.406c0,5.107-0.238,8.721-0.711,10.84c-0.473,2.115-1.341,3.896-2.607,5.34
		c-1.266,1.445-2.964,2.604-5.092,3.465c-2.13,0.863-4.914,1.299-8.348,1.299c-4.136,0-7.275-0.469-9.413-1.406
		c-2.141-0.936-3.834-2.154-5.078-3.66c-1.246-1.506-2.063-3.084-2.454-4.732c-0.577-2.443-0.864-6.043-0.864-10.807V30.688z"/>
	<polygon fill="#FFFFFF" points="146.337,73.958 146.337,30.688 156.244,30.688 174.3,59.575 174.3,30.688 183.988,30.688 
		183.988,73.958 173.591,73.958 155.842,45.716 155.842,73.958 	"/>
	<rect x="188.453" y="30.781" fill="#FFFFFF" width="9.784" height="43.271"/>
	<path fill="#FFFFFF" d="M239.036,30.688h-11.542l-14.599,18.641c-0.227,0.295-0.4,0.608-0.545,0.933V30.688h-9.691v43.207h9.691
		V54.02c0.136,0.307,0.303,0.609,0.515,0.895l14.383,18.889h11.417L222.215,52.2L239.036,30.688z"/>
	<path fill="#FFFFFF" d="M235.525,52.59c0-4.285,0.668-7.865,2.006-10.741c0.987-2.141,2.344-4.061,4.073-5.758
		c1.728-1.694,3.622-2.949,5.68-3.763c2.756-1.111,5.925-1.665,9.507-1.665c6.479,0,11.659,1.917,15.539,5.756
		c3.879,3.838,5.815,9.159,5.815,15.963c0,6.763-1.924,12.05-5.77,15.858c-3.848,3.805-9.002,5.711-15.462,5.711
		c-6.564,0-11.77-1.895-15.617-5.682C237.447,64.481,235.525,59.254,235.525,52.59 M245.277,52.739
		c0,4.383,1.069,7.721,3.208,10.012c2.141,2.291,4.857,3.438,8.149,3.438c3.313,0,6.023-1.133,8.132-3.408
		c2.108-2.271,3.165-5.658,3.165-10.159c0-4.463-1.032-7.796-3.088-9.999c-2.058-2.199-4.794-3.302-8.209-3.302
		c-3.416,0-6.164,1.111-8.241,3.332C246.315,44.875,245.277,48.237,245.277,52.739"/>
	<polygon fill="#FFFFFF" points="282.547,73.958 282.547,30.688 292.454,30.688 310.511,59.575 310.511,30.688 320.198,30.688 
		320.198,73.958 309.8,73.958 292.052,45.716 292.052,73.958 	"/>
	<path fill="#FFFFFF" d="M324.686,73.895V38.187c0.39-5.165,3.63-7.664,9.722-7.5h16.142v9.291h-15.864v7.932h12.807v9.321h-12.807
		v16.664H324.686z"/>
	<path fill="#FFFFFF" d="M351.93,52.633c0-4.274,0.668-7.847,2.007-10.718c0.987-2.138,2.345-4.053,4.073-5.744
		c1.729-1.692,3.622-2.943,5.68-3.757c2.756-1.107,5.925-1.662,9.507-1.662c6.479,0,11.659,1.916,15.538,5.746
		c3.88,3.83,5.818,9.14,5.818,15.928c0,6.75-1.925,12.025-5.772,15.826c-3.847,3.799-9.002,5.699-15.462,5.699
		c-6.563,0-11.77-1.889-15.616-5.672C353.854,64.5,351.93,59.284,351.93,52.633 M361.683,52.782c0,4.377,1.07,7.707,3.208,9.992
		c2.142,2.285,4.857,3.43,8.15,3.43c3.312,0,6.022-1.133,8.131-3.4c2.108-2.266,3.165-5.645,3.165-10.139
		c0-4.453-1.032-7.78-3.087-9.979c-2.058-2.193-4.795-3.294-8.209-3.294c-3.417,0-6.164,1.109-8.242,3.326
		C362.722,44.936,361.683,48.291,361.683,52.782"/>
	<path fill="#FFFFFF" d="M422.781,56.858c-0.169-0.35-0.25-0.74-0.182-1.127c0.117-0.65,0.581-1.272,0.952-1.804
		c0.7-0.997,1.545-1.887,2.406-2.745c2.837-2.84,4.276-6.015,4.319-9.521c0.041-3.509-0.951-6.225-2.979-8.149
		c-2.028-1.923-4.644-2.864-7.854-2.822h-20.493l0.032,43.144h9.659l0.062-33.546h9.691c1.07-0.043,1.812,0.345,2.221,1.157
		c0.413,0.812,0.236,1.63-0.522,2.454c-0.297,0.327-2.278,2.529-2.974,3.302c-0.806,0.895-4.58,5.086-4.722,5.244
		c-0.56,0.638-0.838,1.461-0.925,2.296c-0.162,1.565,0.279,3.063,1.048,4.423c0.354,0.633,7.887,14.006,8.159,14.488
		c0.041,0.072,0.084,0.145,0.122,0.213l11.852,0.063c-0.141-0.242-0.281-0.486-0.421-0.729
		C431.862,72.555,422.819,56.932,422.781,56.858"/>
	<polygon fill="#FFFFFF" points="443.827,73.926 443.827,40.039 434.724,40.039 434.724,30.687 462.5,30.687 462.5,40.039 
		453.888,40.039 453.888,73.926 	"/>
	<path fill="#FFFFFF" d="M74.999,72.782h11.184L70.442,52.245l15.78-19.77H75.171L61.427,49.702
		c-0.61,0.787-0.915,1.684-0.915,2.689c0,0.982,0.296,1.871,0.886,2.66L74.999,72.782z"/>
	<path fill="#FFFFFF" d="M28.895,32.421h9.603v20.966c0,2.154,0.097,3.76,0.295,4.816c0.375,1.664,1.236,3.006,2.585,4.023
		c1.35,1.02,2.782,1.527,4.299,1.527c1.201,0,2.41-0.48,3.621-1.439c1.212-0.959,1.938-2.141,2.187-3.539
		c0.246-1.398,0.368-3.029,0.368-4.889V32.421h10.136v20.321c0,4.914-0.226,8.389-0.681,10.426
		c-0.453,2.035-1.285,3.748-2.496,5.137c-1.211,1.391-2.835,2.5-4.875,3.332c-2.039,0.832-4.702,1.248-7.993,1.248
		c-3.96,0-6.963-0.449-9.013-1.35c-2.047-0.9-3.668-2.074-4.859-3.525c-1.192-1.447-1.976-2.965-2.349-4.551
		c-0.551-2.348-0.828-5.813-0.828-10.395V32.421z"/>
	<path fill="#FFFFFF" d="M91.607,61.883C87.448,76.801,73.77,87.75,57.524,87.75c-19.546,0-35.394-15.846-35.394-35.394
		c0-19.547,15.848-35.395,35.394-35.395c17.895,0,32.678,13.282,35.051,30.524H85.88l0.004-7.937L75.715,52.304l10.157,13.353
		l0.003-8.615l16.43,0.006c0.16-1.541,0.244-3.105,0.244-4.69c0-24.868-20.159-45.024-45.025-45.024
		C32.656,7.333,12.5,27.489,12.5,52.357c0,24.866,20.156,45.026,45.024,45.026c21.596,0,39.634-15.211,44.007-35.5H91.607z"/>
</g>
</svg>
