<?xml version="1.0" encoding="utf-8"?>
<!-- Generator: Adobe Illustrator 22.0.1, SVG Export Plug-In . SVG Version: 6.00 Build 0)  -->
<svg version="1.1" id="Capa_1" xmlns="http://www.w3.org/2000/svg" xmlns:xlink="http://www.w3.org/1999/xlink" x="0px" y="0px"
	 viewBox="0 0 200 200" style="enable-background:new 0 0 200 200;" xml:space="preserve">
<style type="text/css">
	.st0{fill:#E1E0E2;}
	.st1{fill:#FFCB12;}
	.st2{fill:#FAA31B;}
	.st3{fill:#56707B;}
	.st4{fill:#485E64;}
	.st5{fill:#F2633E;}
	.st6{fill:#E05032;}
	.st7{fill:#FCC8A1;}
	.st8{fill:#F6B081;}
	.st9{fill:#FFD13C;}
	.st10{fill:#919191;}
	.st11{fill:#3D5257;}
	.st12{fill:#010101;}
</style>
<g>
	<path class="st0" d="M3.9,44.3c0,0,0.3,100.4,0,111.2c0.3,10.3,8.7,18.6,19.1,18.6h95.8l63.6-63.6V44.3H3.9z"/>
	<path class="st1" d="M97.2,195.8h98.9V96.8L97.2,195.8z M175.1,175.2h-31.8l31.8-31.8V175.2z"/>
	<polygon class="st2" points="186.4,106.5 186.4,195.8 196.1,195.8 196.1,96.8 	"/>
	<path class="st3" d="M174,15l-9-9c-2.3-2.3-6.1-2.3-8.4,0l-7.8,7.8l17.5,17.5l7.8-7.8C176.3,21.1,176.3,17.3,174,15z"/>
	<path class="st4" d="M174,15l-5.8-5.8c2.3,2.3,2.3,6.1,0,8.4l-7.8,7.8l5.8,5.8l7.8-7.8C176.3,21.1,176.3,17.3,174,15z"/>
	
		<rect x="146" y="14.9" transform="matrix(0.7071 -0.7071 0.7071 0.7071 25.4715 115.9509)" class="st5" width="13.4" height="24.7"/>
	
		<rect x="151.8" y="28.9" transform="matrix(0.7071 -0.7071 0.7071 0.7071 23.0634 121.7709)" class="st6" width="13.4" height="8.2"/>
	<polygon class="st7" points="65.5,114.5 92.4,105 75,87.5 	"/>
	<polygon class="st8" points="86.6,99.2 68.6,105.5 65.5,114.5 92.4,105 	"/>
	
		<rect x="70.4" y="51.8" transform="matrix(0.7071 -0.7071 0.7071 0.7071 -11.3919 100.6826)" class="st9" width="90.9" height="24.7"/>
	
		<rect x="76.2" y="65.8" transform="matrix(0.7071 -0.7071 0.7071 0.7071 -13.8031 106.5035)" class="st2" width="90.9" height="8.2"/>
	<path class="st10" d="M23.9,136.1V12.6c-11,0-20,8.9-20,20V156C3.9,145,12.8,136.1,23.9,136.1z"/>
	<polygon class="st11" points="65.5,114.5 78,110 69.9,101.9 	"/>
	<path class="st12" d="M176.2,140.7c-1.1-0.5-2.3-0.2-3.2,0.6l-31.8,31.8c-0.8,0.8-1.1,2.1-0.6,3.2c0.4,1.1,1.5,1.8,2.7,1.8h31.8
		c1.6,0,2.9-1.3,2.9-2.9v-31.8C178,142.2,177.3,141.2,176.2,140.7z M172.2,172.3h-21.8l21.8-21.8L172.2,172.3L172.2,172.3z"/>
	<path class="st12" d="M197.2,94.1c-1.1-0.5-2.3-0.2-3.2,0.6l-8.7,8.7V44.3c0-1.6-1.3-2.9-2.9-2.9h-22.3l8.1-8.1c0,0,0,0,0,0
		l7.8-7.8c1.7-1.7,2.6-3.9,2.6-6.3s-0.9-4.6-2.6-6.3l-9-9c-1.7-1.7-3.9-2.6-6.3-2.6s-4.6,0.9-6.3,2.6l-7.8,7.8l-9.4,9.4L117,41.4
		H26.8V12.6c0-1.6-1.3-2.9-2.9-2.9C11.3,9.7,1,20,1,32.6V156c0,0.2,0,0.4,0.1,0.6c0.4,5.3,2.7,10.3,6.6,14.1c4.1,4,9.6,6.3,15.4,6.3
		h88.8l-16.7,16.7c-0.8,0.8-1.1,2.1-0.6,3.2c0.4,1.1,1.5,1.8,2.7,1.8h98.9c1.6,0,2.9-1.3,2.9-2.9V96.8
		C199,95.7,198.3,94.6,197.2,94.1z M148.7,17.9L162,31.2l-5.3,5.3l-13.3-13.3L148.7,17.9z M158.6,8c1.2-1.2,3.1-1.2,4.3,0l9,9
		c1.2,1.2,1.2,3.1,0,4.3l-5.8,5.8l-13.3-13.3L158.6,8z M104.2,192.9l16.7-16.7c0,0,0,0,0,0l7.4-7.4l5.2-5.2c1.1-1.1,1.1-3,0-4.1
		c-0.1-0.1-0.3-0.2-0.4-0.3c-1.1-0.8-2.7-0.7-3.7,0.3l-11.8,11.8H23c-8.8,0-15.9-6.9-16.2-15.7c0-0.6,0.1-1.1,0.1-1.6c0,0,0,0,0,0
		c0-0.3,0.1-0.5,0.1-0.8c0,0,0-0.1,0-0.1c0-0.2,0.1-0.5,0.1-0.7c0-0.1,0-0.1,0-0.2c0-0.2,0.1-0.4,0.1-0.6c0-0.1,0.1-0.2,0.1-0.3
		c0-0.1,0.1-0.3,0.1-0.4c0-0.1,0.1-0.3,0.1-0.4c0-0.1,0.1-0.2,0.1-0.3c0.1-0.2,0.1-0.4,0.2-0.6c0-0.1,0-0.1,0.1-0.2
		c0.1-0.2,0.2-0.5,0.3-0.7c0,0,0,0,0,0c2.3-4.7,6.6-8.2,11.9-9.3c0,0,0,0,0,0c0.2,0,0.5-0.1,0.7-0.1c0,0,0.1,0,0.1,0
		c0.2,0,0.4-0.1,0.7-0.1c0.1,0,0.1,0,0.2,0c0.2,0,0.4,0,0.7,0c0.1,0,0.1,0,0.2,0c0.3,0,0.6,0,0.9,0c1.6,0,2.9-1.3,2.9-2.9V115
		c0-1.6-1.3-2.9-2.9-2.9S21,113.4,21,115v18.3c-4.9,0.6-9.5,2.8-13.1,6.3c-0.4,0.4-0.7,0.8-1.1,1.1V32.6c0-8.4,6.1-15.4,14.1-16.8
		v28.5v59.1v0c0,1.6,1.3,2.9,2.9,2.9s2.9-1.3,2.9-2.9v0V47.2h84.4L95.1,63.3c-1.1,1.1-1.1,3,0,4.1c1.1,1.1,3,1.1,4.1,0l21-21
		c0,0,0,0,0,0l19-19l13.3,13.3l-1.6,1.6c0,0,0,0,0,0l-58.6,58.6L79.1,87.5L90.6,76c1.1-1.1,1.1-3,0-4.1c-1.1-1.1-3-1.1-4.1,0
		L72.9,85.4c-0.1,0.1-0.1,0.1-0.2,0.2c0,0,0,0.1-0.1,0.1c0,0.1-0.1,0.1-0.1,0.2c0,0,0,0.1-0.1,0.1c0,0.1-0.1,0.1-0.1,0.2
		c0,0,0,0.1-0.1,0.1c0,0.1,0,0.1-0.1,0.2c0,0,0,0,0,0.1l-5.7,16l-3.9,10.9c-0.1,0.1-0.1,0.3-0.1,0.4h-9.7c-1.6,0-2.9,1.3-2.9,2.9
		c0,1.6,1.3,2.9,2.9,2.9h80.5c1.6,0,2.9-1.3,2.9-2.9c0-1.6-1.3-2.9-2.9-2.9H75.7l17.7-6.3c0,0,0,0,0,0c0.1,0,0.1-0.1,0.2-0.1
		c0,0,0.1,0,0.1,0c0.1,0,0.1-0.1,0.2-0.1c0,0,0,0,0.1,0c0.1,0,0.1-0.1,0.2-0.1c0,0,0,0,0.1,0c0.1-0.1,0.2-0.1,0.2-0.2l59.8-59.8
		h25.2v62.1L138,150.9c-1.1,1.1-1.1,3,0,4.1c0.1,0.1,0.1,0.1,0.2,0.2c0.5,0.4,1.2,0.7,1.8,0.7c0.7,0,1.3-0.2,1.8-0.7
		c0.1-0.1,0.1-0.1,0.2-0.2l42.4-42.4c0,0,0,0,0,0l8.7-8.7v25.6h-5.4c-1.6,0-2.9,1.3-2.9,2.9c0,1.6,1.3,2.9,2.9,2.9h5.4v8.8h-5.4
		c-1.6,0-2.9,1.3-2.9,2.9s1.3,2.9,2.9,2.9h5.4v8.8h-5.4c-1.6,0-2.9,1.3-2.9,2.9s1.3,2.9,2.9,2.9h5.4v8.8h-5.4
		c-1.6,0-2.9,1.3-2.9,2.9c0,1.6,1.3,2.9,2.9,2.9h5.4v13.9L104.2,192.9L104.2,192.9z M78.8,106.7l-5.5-5.5l2.9-8.3l10.9,10.9
		L78.8,106.7z"/>
</g>
</svg>
