<?xml version="1.0" encoding="utf-8"?>
<!-- Generator: Adobe Illustrator 22.0.1, SVG Export Plug-In . SVG Version: 6.00 Build 0)  -->
<svg version="1.1" id="Capa_1" xmlns="http://www.w3.org/2000/svg" xmlns:xlink="http://www.w3.org/1999/xlink" x="0px" y="0px"
	 viewBox="0 0 200 200" style="enable-background:new 0 0 200 200;" xml:space="preserve">
<style type="text/css">
	.st0{fill:#19478C;}
	.st1{fill:#DAEFF6;}
	.st2{fill:#3789C9;}
	.st3{fill:#73B9E6;}
	.st4{fill:#F8B545;}
	.st5{fill:#010101;}
	.st6{fill:#8FCB7C;}
</style>
<g>
	<polygon class="st0" points="167.6,92.9 170.7,104.9 169,105.3 29.2,105.3 32.4,92.9 34,93.3 166,93.3 	"/>
	<polygon class="st1" points="167.6,92.9 166,93.3 34,93.3 32.4,92.9 40,63.3 52,63.3 52,75.3 94,75.3 94,63.3 106,63.3 106,75.3 
		148,75.3 148,63.3 160,63.3 	"/>
	<g>
		<polygon class="st2" points="160,21.3 160,63.3 148,63.3 148,48.3 106,48.3 106,63.3 94,63.3 94,48.3 52,48.3 52,63.3 40,63.3 
			40,21.3 		"/>
		<polygon class="st2" points="187,168.3 187,195.3 13,195.3 13,168.3 13.6,166.2 22,168.3 91,168.3 97,168.3 103,168.3 109,168.3 
			178,168.3 186.4,166.2 		"/>
	</g>
	<polygon class="st3" points="170.7,104.9 186.4,166.2 178,168.3 109,168.3 103,168.3 97,168.3 91,168.3 22,168.3 13.6,166.2 
		29.2,105.3 169,105.3 	"/>
	<g>
		<polygon class="st4" points="148,63.3 148,75.3 106,75.3 106,63.3 106,48.3 148,48.3 		"/>
		<polygon class="st4" points="94,63.3 94,75.3 52,75.3 52,63.3 52,48.3 94,48.3 		"/>
	</g>
	<path class="st5" d="M13,198.3h174c1.7,0,3-1.3,3-3v-27c0-0.3,0-0.5-0.1-0.7L163,63V21.3c0-1.7-1.3-3-3-3H40c-1.7,0-3,1.3-3,3V63
		L10.1,167.6c-0.1,0.2-0.1,0.5-0.1,0.7v27C10,197,11.3,198.3,13,198.3z M43,24.3h114v36h-6v-12c0-1.7-1.3-3-3-3h-42
		c-1.7,0-3,1.3-3,3v12h-6v-12c0-1.7-1.3-3-3-3H52c-1.7,0-3,1.3-3,3v12h-6V24.3z M145,51.3v21h-36v-21H145z M91,51.3v21H55v-21H91z
		 M42.3,66.3H49v9c0,1.7,1.3,3,3,3h42c1.7,0,3-1.3,3-3v-9h6v9c0,1.7,1.3,3,3,3h42c1.7,0,3-1.3,3-3v-9h6.7l6.2,24H36.2L42.3,66.3z
		 M34.6,96.3h130.8l1.5,6H33.1L34.6,96.3z M16,168.7l15.5-60.4h137l15.5,60.4v23.6H16V168.7z"/>
	<rect x="109" y="165.3" class="st5" width="69" height="6"/>
	<rect x="97" y="165.3" class="st5" width="6" height="6"/>
	<rect x="22" y="165.3" class="st5" width="69" height="6"/>
	<path class="st6" d="M62.8,92.2l33.7,38.4c1.8,2.1,5.1,2.1,7,0l33.7-38.4c2.8-3.2,0.2-8.1-4-7.7l-15.6,1.7
		c-2.6,0.3-4.9-1.6-5.1-4.2l-4.7-73c-0.2-2.4-2.2-4.2-4.6-4.2h-6.6c-2.4,0-4.4,1.8-4.6,4.2l-4.7,73c-0.2,2.6-2.5,4.5-5.1,4.2
		l-15.6-1.7C62.6,84.1,60,89.1,62.8,92.2z"/>
	<path class="st5" d="M100,135.4c-2.2,0-4.4-1-5.9-2.7L60.4,94.3c-2.1-2.4-2.6-5.9-1.1-8.7c1.5-2.9,4.5-4.5,7.8-4.2l15.6,1.7
		c0.5,0.1,0.9-0.2,1.1-0.3c0.2-0.1,0.5-0.5,0.5-1l4.7-73.1c0.4-4,3.7-7.1,7.8-7.1h6.6c4.1,0,7.4,3,7.8,7.1l0,0.1l4.7,73
		c0.1,0.5,0.4,0.8,0.5,1c0.2,0.1,0.6,0.4,1.1,0.3l15.6-1.7c3.2-0.3,6.3,1.3,7.8,4.2c1.5,2.9,1.1,6.3-1.1,8.7l-33.7,38.4
		C104.4,134.4,102.2,135.4,100,135.4z M66.2,87.7c-0.8,0-1.1,0.5-1.3,0.8c-0.1,0.3-0.4,1,0.2,1.6l33.7,38.4c0.4,0.4,0.9,0.5,1.1,0.5
		s0.7-0.1,1.1-0.5l33.7-38.4c0.6-0.7,0.3-1.4,0.2-1.6c-0.1-0.3-0.6-0.9-1.5-0.8L118,89.4c-2.1,0.2-4.1-0.4-5.8-1.7
		c-1.6-1.3-2.6-3.2-2.8-5.3l0-0.1l-4.7-73c-0.1-0.7-0.7-1.3-1.5-1.3h-6.6c-0.8,0-1.4,0.6-1.5,1.3l-4.7,73.1c-0.2,2.1-1.2,4-2.8,5.3
		c-1.6,1.3-3.7,1.9-5.8,1.7l-15.6-1.7C66.4,87.7,66.3,87.7,66.2,87.7z"/>
</g>
</svg>
