<?xml version="1.0" encoding="utf-8"?>
<!-- Generator: Adobe Illustrator 22.0.1, SVG Export Plug-In . SVG Version: 6.00 Build 0)  -->
<svg version="1.1" id="Capa_1" xmlns="http://www.w3.org/2000/svg" xmlns:xlink="http://www.w3.org/1999/xlink" x="0px" y="0px"
	 viewBox="0 0 200 200" style="enable-background:new 0 0 200 200;" xml:space="preserve">
<style type="text/css">
	.st0{fill:#666E79;}
	.st1{fill:#E7E9ED;}
	.st2{fill:#6899D1;}
	.st3{fill:#1F54A4;}
	.st4{fill:#FAAC6C;}
	.st5{fill:#FBC640;}
	.st6{fill:#499CD6;}
	.st7{fill:#010101;}
</style>
<g>
	<g>
		<path class="st0" d="M177.3,76.3v49.5h-18.6v-12.4c0-3.4-2.8-6.2-6.2-6.2h-37.1c-3.4,0-6.2,2.8-6.2,6.2v12.4H90.7v-12.4
			c0-3.4-2.8-6.2-6.2-6.2H47.4c-3.4,0-6.2,2.8-6.2,6.2v12.4H22.7V76.3c0-3.4,2.8-6.2,6.2-6.2h142.3
			C174.6,70.2,177.3,72.9,177.3,76.3L177.3,76.3z M177.3,76.3"/>
		<path class="st1" d="M90.7,113.5v12.4H41.2v-12.4c0-3.4,2.8-6.2,6.2-6.2h37.1C88,107.3,90.7,110,90.7,113.5L90.7,113.5z
			 M90.7,113.5"/>
		<path class="st1" d="M158.8,113.5v12.4h-49.5v-12.4c0-3.4,2.8-6.2,6.2-6.2h37.1C156,107.3,158.8,110,158.8,113.5L158.8,113.5z
			 M158.8,113.5"/>
		<rect x="152.6" y="181.5" class="st0" width="30.9" height="12.4"/>
		<rect x="16.5" y="181.5" class="st0" width="30.9" height="12.4"/>
		<path class="st1" d="M195.9,175.3c0,3.4-2.8,6.2-6.2,6.2H10.3c-3.4,0-6.2-2.8-6.2-6.2v-9.3h191.8V175.3z M195.9,175.3"/>
		<path class="st2" d="M177.3,125.8c10.2,0,18.6,8.3,18.6,18.6v21.7H4.1v-21.7c0-10.3,8.3-18.6,18.6-18.6H177.3z M177.3,125.8"/>
		<path d="M4.1,147.5c-1.7,0-3.1-1.4-3.1-3.1c0-11.9,9.7-21.7,21.7-21.7c1.7,0,3.1,1.4,3.1,3.1c0,1.7-1.4,3.1-3.1,3.1
			c-8.5,0-15.5,6.9-15.5,15.5C7.2,146.1,5.8,147.5,4.1,147.5L4.1,147.5z M4.1,147.5"/>
		<path d="M195.9,147.5c-1.7,0-3.1-1.4-3.1-3.1c0-8.5-6.9-15.5-15.5-15.5c-1.7,0-3.1-1.4-3.1-3.1c0-1.7,1.4-3.1,3.1-3.1
			c11.9,0,21.7,9.7,21.7,21.7C199,146.1,197.6,147.5,195.9,147.5L195.9,147.5z M195.9,147.5"/>
		<path d="M177.3,128.9H22.7c-1.7,0-3.1-1.4-3.1-3.1c0-1.7,1.4-3.1,3.1-3.1h154.7c1.7,0,3.1,1.4,3.1,3.1
			C180.4,127.6,179.1,128.9,177.3,128.9L177.3,128.9z M177.3,128.9"/>
		<path d="M4.1,178.5c-1.7,0-3.1-1.4-3.1-3.1v-31c0-1.7,1.4-3.1,3.1-3.1s3.1,1.4,3.1,3.1v31C7.2,177.1,5.8,178.5,4.1,178.5
			L4.1,178.5z M4.1,178.5"/>
		<path d="M10.3,184.6c-5.1,0-9.3-4.2-9.3-9.3c0-1.7,1.4-3.1,3.1-3.1s3.1,1.4,3.1,3.1c0,1.7,1.4,3.1,3.1,3.1c1.7,0,3.1,1.4,3.1,3.1
			C13.4,183.3,12,184.6,10.3,184.6L10.3,184.6z M10.3,184.6"/>
		<path d="M195.9,178.5c-1.7,0-3.1-1.4-3.1-3.1v-31c0-1.7,1.4-3.1,3.1-3.1c1.7,0,3.1,1.4,3.1,3.1v31
			C199,177.1,197.6,178.5,195.9,178.5L195.9,178.5z M195.9,178.5"/>
		<path d="M189.7,184.6c-1.7,0-3.1-1.4-3.1-3.1c0-1.7,1.4-3.1,3.1-3.1c1.7,0,3.1-1.4,3.1-3.1c0-1.7,1.4-3.1,3.1-3.1
			c1.7,0,3.1,1.4,3.1,3.1C199,180.5,194.8,184.6,189.7,184.6L189.7,184.6z M189.7,184.6"/>
		<path d="M189.7,184.6H10.3c-1.7,0-3.1-1.4-3.1-3.1c0-1.7,1.4-3.1,3.1-3.1h179.4c1.7,0,3.1,1.4,3.1,3.1
			C192.8,183.3,191.4,184.6,189.7,184.6L189.7,184.6z M189.7,184.6"/>
		<path d="M195.9,169.2H4.1c-1.7,0-3.1-1.4-3.1-3.1c0-1.7,1.4-3.1,3.1-3.1h191.8c1.7,0,3.1,1.4,3.1,3.1
			C199,167.8,197.6,169.2,195.9,169.2L195.9,169.2z M195.9,169.2"/>
		<path d="M16.5,197c-1.7,0-3.1-1.4-3.1-3.1v-12.4c0-1.7,1.4-3.1,3.1-3.1c1.7,0,3.1,1.4,3.1,3.1v12.4C19.6,195.6,18.2,197,16.5,197
			L16.5,197z M16.5,197"/>
		<path d="M47.4,197H16.5c-1.7,0-3.1-1.4-3.1-3.1c0-1.7,1.4-3.1,3.1-3.1h30.9c1.7,0,3.1,1.4,3.1,3.1C50.5,195.6,49.1,197,47.4,197
			L47.4,197z M47.4,197"/>
		<path d="M47.4,197c-1.7,0-3.1-1.4-3.1-3.1v-12.4c0-1.7,1.4-3.1,3.1-3.1c1.7,0,3.1,1.4,3.1,3.1v12.4C50.5,195.6,49.1,197,47.4,197
			L47.4,197z M47.4,197"/>
		<path d="M152.6,197c-1.7,0-3.1-1.4-3.1-3.1v-12.4c0-1.7,1.4-3.1,3.1-3.1c1.7,0,3.1,1.4,3.1,3.1v12.4
			C155.7,195.6,154.3,197,152.6,197L152.6,197z M152.6,197"/>
		<path d="M183.5,197h-30.9c-1.7,0-3.1-1.4-3.1-3.1c0-1.7,1.4-3.1,3.1-3.1h30.9c1.7,0,3.1,1.4,3.1,3.1
			C186.6,195.6,185.2,197,183.5,197L183.5,197z M183.5,197"/>
		<path d="M183.5,197c-1.7,0-3.1-1.4-3.1-3.1v-12.4c0-1.7,1.4-3.1,3.1-3.1c1.7,0,3.1,1.4,3.1,3.1v12.4
			C186.6,195.6,185.2,197,183.5,197L183.5,197z M183.5,197"/>
		<path d="M22.7,128.9c-1.7,0-3.1-1.4-3.1-3.1V76.3c0-1.7,1.4-3.1,3.1-3.1c1.7,0,3.1,1.4,3.1,3.1v49.5
			C25.7,127.6,24.4,128.9,22.7,128.9L22.7,128.9z M22.7,128.9"/>
		<path d="M177.3,128.9c-1.7,0-3.1-1.4-3.1-3.1V76.3c0-1.7,1.4-3.1,3.1-3.1c1.7,0,3.1,1.4,3.1,3.1v49.5
			C180.4,127.6,179.1,128.9,177.3,128.9L177.3,128.9z M177.3,128.9"/>
		<path d="M171.2,73.3H28.8c-1.7,0-3.1-1.4-3.1-3.1c0-1.7,1.4-3.1,3.1-3.1h142.3c1.7,0,3.1,1.4,3.1,3.1
			C174.2,71.9,172.9,73.3,171.2,73.3L171.2,73.3z M171.2,73.3"/>
		<path d="M41.2,116.6c-1.7,0-3.1-1.4-3.1-3.1c0-5.1,4.2-9.3,9.3-9.3c1.7,0,3.1,1.4,3.1,3.1c0,1.7-1.4,3.1-3.1,3.1
			c-1.7,0-3.1,1.4-3.1,3.1C44.3,115.2,42.9,116.6,41.2,116.6L41.2,116.6z M41.2,116.6"/>
		<path d="M90.7,116.6c-1.7,0-3.1-1.4-3.1-3.1c0-1.7-1.4-3.1-3.1-3.1c-1.7,0-3.1-1.4-3.1-3.1c0-1.7,1.4-3.1,3.1-3.1
			c5.1,0,9.3,4.2,9.3,9.3C93.8,115.2,92.4,116.6,90.7,116.6L90.7,116.6z M90.7,116.6"/>
		<path d="M41.2,128.9c-1.7,0-3.1-1.4-3.1-3.1v-12.4c0-1.7,1.4-3.1,3.1-3.1c1.7,0,3.1,1.4,3.1,3.1v12.4
			C44.3,127.6,42.9,128.9,41.2,128.9L41.2,128.9z M41.2,128.9"/>
		<path d="M90.7,128.9c-1.7,0-3.1-1.4-3.1-3.1v-12.4c0-1.7,1.4-3.1,3.1-3.1c1.7,0,3.1,1.4,3.1,3.1v12.4
			C93.8,127.6,92.4,128.9,90.7,128.9L90.7,128.9z M90.7,128.9"/>
		<path d="M84.5,110.4H47.4c-1.7,0-3.1-1.4-3.1-3.1c0-1.7,1.4-3.1,3.1-3.1h37.1c1.7,0,3.1,1.4,3.1,3.1
			C87.6,109,86.2,110.4,84.5,110.4L84.5,110.4z M84.5,110.4"/>
		<path d="M109.3,116.6c-1.7,0-3.1-1.4-3.1-3.1c0-5.1,4.2-9.3,9.3-9.3c1.7,0,3.1,1.4,3.1,3.1c0,1.7-1.4,3.1-3.1,3.1
			c-1.7,0-3.1,1.4-3.1,3.1C112.4,115.2,111,116.6,109.3,116.6L109.3,116.6z M109.3,116.6"/>
		<path d="M158.8,116.6c-1.7,0-3.1-1.4-3.1-3.1c0-1.7-1.4-3.1-3.1-3.1c-1.7,0-3.1-1.4-3.1-3.1c0-1.7,1.4-3.1,3.1-3.1
			c5.1,0,9.3,4.2,9.3,9.3C161.9,115.2,160.5,116.6,158.8,116.6L158.8,116.6z M158.8,116.6"/>
		<path d="M109.3,128.9c-1.7,0-3.1-1.4-3.1-3.1v-12.4c0-1.7,1.4-3.1,3.1-3.1s3.1,1.4,3.1,3.1v12.4
			C112.4,127.6,111,128.9,109.3,128.9L109.3,128.9z M109.3,128.9"/>
		<path d="M158.8,128.9c-1.7,0-3.1-1.4-3.1-3.1v-12.4c0-1.7,1.4-3.1,3.1-3.1c1.7,0,3.1,1.4,3.1,3.1v12.4
			C161.9,127.6,160.5,128.9,158.8,128.9L158.8,128.9z M158.8,128.9"/>
		<path d="M152.6,110.4h-37.1c-1.7,0-3.1-1.4-3.1-3.1c0-1.7,1.4-3.1,3.1-3.1h37.1c1.7,0,3.1,1.4,3.1,3.1
			C155.7,109,154.3,110.4,152.6,110.4L152.6,110.4z M152.6,110.4"/>
		<path d="M22.7,79.4c-1.7,0-3.1-1.4-3.1-3.1c0-5.1,4.2-9.3,9.3-9.3c1.7,0,3.1,1.4,3.1,3.1c0,1.7-1.4,3.1-3.1,3.1
			c-1.7,0-3.1,1.4-3.1,3.1C25.7,78.1,24.4,79.4,22.7,79.4L22.7,79.4z M22.7,79.4"/>
		<path d="M177.3,79.4c-1.7,0-3.1-1.4-3.1-3.1c0-1.7-1.4-3.1-3.1-3.1c-1.7,0-3.1-1.4-3.1-3.1c0-1.7,1.4-3.1,3.1-3.1
			c5.1,0,9.3,4.2,9.3,9.3C180.4,78.1,179.1,79.4,177.3,79.4L177.3,79.4z M177.3,79.4"/>
	</g>
	<polygon class="st3" points="158.1,142 163.9,135.2 167.4,144.1 164.4,144.6 	"/>
	<polygon class="st4" points="140.1,135 158.7,143.7 164.5,136.7 157.8,118.7 	"/>
	<polygon class="st5" points="38.6,112.4 28,125.7 50.9,150 60.9,143.2 111.8,92 172.6,31.1 167.9,23.8 148.8,5.5 143.4,8.3 	"/>
	<path class="st6" d="M35.3,10.2l-6,9l3,10.2L138.6,135l19.5-19.3L50.6,10.2C50.6,10.2,46,6,35.3,10.2z"/>
	<polygon class="st3" points="43.3,38.3 61.3,20.8 69.7,29.5 51,47.5 	"/>
	<g>
		<path class="st7" d="M172,24.7L153.1,5.8c-2.8-2.8-7.3-2.8-10,0l-35.7,35.7c-0.9,0.9-0.9,2.3,0,3.2c0.9,0.9,2.3,0.9,3.2,0L146.3,9
			c0.5-0.5,1.1-0.7,1.8-0.7s1.3,0.3,1.8,0.7L168.8,28c0.5,0.5,0.7,1.1,0.7,1.8c0,0.7-0.3,1.3-0.7,1.8l-4.6,4.6L152,24
			c-0.9-0.9-2.3-0.9-3.2,0c-0.9,0.9-0.9,2.3,0,3.2l12.2,12.2l-5.3,5.3l-5.4-5.4c-0.9-0.9-2.3-0.9-3.2,0c-0.9,0.9-0.9,2.3,0,3.2
			l5.4,5.4l-5.3,5.3l-5.4-5.4c-0.9-0.9-2.3-0.9-3.2,0c-0.9,0.9-0.9,2.3,0,3.2l5.4,5.4l-5.3,5.3l-12.2-12.2c-0.9-0.9-2.3-0.9-3.2,0
			c-0.9,0.9-0.9,2.3,0,3.2L135.3,65l-5.3,5.3l-5.4-5.4c-0.9-0.9-2.3-0.9-3.2,0c-0.9,0.9-0.9,2.3,0,3.2l5.4,5.4l-4.5,4.5L99.7,55.6
			l4.2-4.2c0.9-0.9,0.9-2.3,0-3.2c-0.9-0.9-2.3-0.9-3.2,0l-4.2,4.2L54.3,10.2c-2.9-2.9-6.8-4.6-11-4.6c-4.1,0-8.1,1.6-11,4.6
			c-2.9,2.9-4.6,6.8-4.6,11c0,4.1,1.6,8.1,4.6,11l42.2,42.2L28,120.9c-2.8,2.8-2.8,7.3,0,10l18.9,18.9c1.3,1.3,3.1,2.1,5,2.1
			s3.7-0.7,5-2.1l46.6-46.6l3.3,3.3c0.9,0.9,2.3,0.9,3.2,0c0.9-0.9,0.9-2.3,0-3.2l-4.6-4.6c-0.1-0.1-0.2-0.3-0.3-0.4
			s-0.3-0.2-0.4-0.3L55.2,48.5l6.1-6.1l3.8,3.8c0.4,0.4,1,0.7,1.6,0.7c0.6,0,1.2-0.2,1.6-0.7c0.9-0.9,0.9-2.3,0-3.2l-3.8-3.8
			l6.1-6.1l24.2,24.2c0,0,0,0,0,0s0,0,0,0l25.5,25.5c0.1,0.1,0.1,0.2,0.2,0.2c0.1,0.1,0.2,0.1,0.2,0.2l33.9,33.9l-6.1,6.1L114.4,89
			c0,0,0,0-0.1-0.1l-13.7-13.7c0,0,0,0-0.1-0.1L76.5,51.1c-0.9-0.9-2.3-0.9-3.2,0c-0.9,0.9-0.9,2.3,0,3.2l72.2,72.2l-6.1,6.1
			l-21.7-21.7c-0.9-0.9-2.3-0.9-3.2,0c-0.9,0.9-0.9,2.3,0,3.2l23.4,23.4c0.2,0.2,0.5,0.4,0.8,0.5l27.6,10.7c0.4,0.2,0.9,0.3,1.3,0.3
			c1,0,1.9-0.4,2.6-1.1c1-1,1.4-2.6,0.8-4l-10.7-27.6c-0.1-0.3-0.3-0.6-0.5-0.8l-34.2-34.2L172,34.7C174.8,32,174.8,27.5,172,24.7z
			 M35.6,13.4c4.3-4.3,11.2-4.3,15.5,0l7.2,7.2L42.8,36.1l-7.2-7.2C31.3,24.6,31.3,17.7,35.6,13.4z M95.8,104.5l-5.4-5.4
			c-0.9-0.9-2.3-0.9-3.2,0c-0.9,0.9-0.9,2.3,0,3.2l5.4,5.4l-5.3,5.3L75,100.9c-0.9-0.9-2.3-0.9-3.2,0c-0.9,0.9-0.9,2.3,0,3.2
			L84,116.3l-5.3,5.3l-5.4-5.4c-0.9-0.9-2.3-0.9-3.2,0c-0.9,0.9-0.9,2.3,0,3.2l5.4,5.4l-5.3,5.3l-5.4-5.4c-0.9-0.9-2.3-0.9-3.2,0
			c-0.9,0.9-0.9,2.3,0,3.2l5.4,5.4l-5.3,5.3l-12.2-12.2c-0.9-0.9-2.3-0.9-3.2,0c-0.9,0.9-0.9,2.3,0,3.2L58.3,142l-4.6,4.6
			c-0.5,0.5-1.1,0.7-1.8,0.7c-0.7,0-1.3-0.3-1.8-0.7l-18.9-18.9c-1-1-1-2.6,0-3.5l46.6-46.6l22.5,22.5L95.8,104.5z M59.7,37.5
			C59.7,37.5,59.7,37.5,59.7,37.5C59.7,37.5,59.7,37.5,59.7,37.5L52,45.3L46,39.4l15.5-15.5l5.9,5.9L59.7,37.5z M143.4,135
			l13.8-13.8l8.8,22.5L143.4,135z"/>
		<path class="st7" d="M51.9,152.6c-2.1,0-4-0.8-5.5-2.3l-18.9-18.9c-3-3-3-8,0-11l46.1-46.1L31.8,32.6c-3.1-3.1-4.8-7.2-4.8-11.5
			s1.7-8.4,4.8-11.5c3.1-3.1,7.1-4.8,11.5-4.8c4.3,0,8.4,1.7,11.5,4.8l41.7,41.7l3.7-3.7c1.2-1.2,3.1-1.2,4.2,0
			c1.2,1.2,1.2,3.1,0,4.2l-3.7,3.7l21.5,21.5l3.5-3.5l-4.8-4.8c-1.2-1.2-1.2-3.1,0-4.2c1.2-1.2,3.1-1.2,4.2,0l4.8,4.8l4.3-4.3
			l-11.7-11.7c-1.2-1.2-1.2-3.1,0-4.2c1.2-1.2,3.1-1.2,4.2,0l11.7,11.7l4.3-4.3l-4.8-4.8c-1.2-1.2-1.2-3.1,0-4.2
			c1.2-1.2,3.1-1.2,4.2,0l4.8,4.8l4.3-4.3l-4.8-4.8c-1.2-1.2-1.2-3.1,0-4.2c1.2-1.2,3.1-1.2,4.2,0l4.8,4.8l4.3-4.3l-11.7-11.7
			c-1.2-1.2-1.2-3.1,0-4.2c1.2-1.2,3.1-1.2,4.2,0l11.7,11.7l4.1-4.1c0.3-0.3,0.5-0.8,0.5-1.3c0-0.5-0.2-0.9-0.5-1.3L149.3,9.5
			C149,9.2,148.6,9,148.1,9c-0.5,0-0.9,0.2-1.3,0.5l-35.7,35.7c-1.2,1.2-3.1,1.2-4.2,0c-1.2-1.2-1.2-3.1,0-4.2l35.7-35.7
			c3-3,8-3,11,0l18.9,18.9c3,3,3,8,0,11l-46.1,46.1l33.7,33.7c0.3,0.3,0.5,0.6,0.7,1l10.7,27.6c0.6,1.6,0.2,3.5-1,4.7
			c-0.8,0.8-1.9,1.3-3.1,1.3c-0.5,0-1.1-0.1-1.6-0.3l-27.6-10.7c-0.4-0.1-0.7-0.4-1-0.7l-23.4-23.4c-1.2-1.2-1.2-3.1,0-4.2
			c1.2-1.2,3.1-1.2,4.2,0l21.2,21.2l5.1-5.1L72.7,54.8c-1.2-1.2-1.2-3.1,0-4.2c1.2-1.2,3.1-1.2,4.2,0l24.1,24.1c0,0,0,0,0.1,0.1
			l13.7,13.7c0,0,0,0.1,0.1,0.1l33.7,33.7l5.1-5.1l-33.4-33.4c-0.1-0.1-0.2-0.2-0.3-0.2c-0.1-0.1-0.2-0.2-0.2-0.3L70.7,34l-5.1,5.1
			l3.3,3.3c1.2,1.2,1.2,3.1,0,4.2c-0.6,0.6-1.3,0.9-2.1,0.9c-0.8,0-1.6-0.3-2.1-0.9l-3.3-3.3l-5.1,5.1l49,49
			c0.2,0.1,0.3,0.2,0.4,0.4c0.1,0.1,0.3,0.3,0.4,0.4l4.5,4.5c1.2,1.2,1.2,3.1,0,4.2c-1.2,1.2-3.1,1.2-4.2,0l-2.8-2.8l-46.1,46.1
			C56,151.8,54,152.6,51.9,152.6z M43.3,6.3c-4,0-7.7,1.5-10.5,4.3c-2.8,2.8-4.3,6.5-4.3,10.5c0,4,1.5,7.7,4.3,10.5l42.7,42.7
			l-47.1,47.1c-2.5,2.5-2.5,6.5,0,9l18.9,18.9c1.2,1.2,2.8,1.9,4.5,1.9s3.3-0.7,4.5-1.9l47.1-47.1l3.8,3.8c0.6,0.6,1.6,0.6,2.2,0
			c0.6-0.6,0.6-1.6,0-2.2l-4.7-4.7c-0.1-0.1-0.1-0.2-0.2-0.3c-0.1-0.1-0.2-0.2-0.3-0.2l-0.1-0.1L54.2,48.5l7.1-7.1l4.3,4.3
			c0.3,0.3,0.7,0.5,1.1,0.5s0.8-0.2,1.1-0.5c0.6-0.6,0.6-1.6,0-2.2l-4.3-4.3l7.1-7.1L121,82.3c0,0.1,0.1,0.1,0.1,0.2
			c0.1,0.1,0.1,0.1,0.2,0.1l0.1,0.1l34.4,34.4l-7.1,7.1L76,51.6c-0.6-0.6-1.6-0.6-2.2,0c-0.6,0.6-0.6,1.6,0,2.2l72.7,72.7l-7.1,7.1
			L117,111.4c-0.6-0.6-1.6-0.6-2.2,0c-0.6,0.6-0.6,1.6,0,2.2l23.4,23.4c0.2,0.2,0.3,0.3,0.5,0.4l27.6,10.7c0.3,0.1,0.7,0.2,1.1,0.2
			c0.8,0,1.6-0.3,2.1-0.9c0.8-0.8,1.1-2.1,0.7-3.2l-10.7-27.6c-0.1-0.2-0.2-0.4-0.4-0.5l-34.7-34.7l47.1-47.1c2.5-2.5,2.5-6.5,0-9
			L152.6,6.3c-2.5-2.5-6.5-2.5-9,0L107.9,42c-0.6,0.6-0.6,1.6,0,2.2c0.6,0.6,1.6,0.6,2.2,0l35.7-35.7c0.6-0.6,1.4-0.9,2.3-0.9
			c0.9,0,1.7,0.3,2.3,0.9l18.9,18.9c0.6,0.6,0.9,1.4,0.9,2.3c0,0.9-0.3,1.7-0.9,2.3l-5.2,5.2l-12.7-12.7c-0.6-0.6-1.6-0.6-2.2,0
			c-0.6,0.6-0.6,1.6,0,2.2l12.7,12.7l-6.3,6.3l-5.9-5.9c-0.6-0.6-1.6-0.6-2.2,0c-0.6,0.6-0.6,1.6,0,2.2l5.9,5.9l-6.3,6.3l-5.9-5.9
			c-0.6-0.6-1.6-0.6-2.2,0c-0.6,0.6-0.6,1.6,0,2.2l5.9,5.9l-6.3,6.3l-12.7-12.7c-0.6-0.6-1.6-0.6-2.2,0c-0.6,0.6-0.6,1.6,0,2.2
			L136.3,65l-6.3,6.3l-5.9-5.9c-0.6-0.6-1.6-0.6-2.2,0c-0.6,0.6-0.6,1.6,0,2.2l5.9,5.9l-5.5,5.5L98.7,55.6l4.7-4.7
			c0.6-0.6,0.6-1.6,0-2.2c-0.6-0.6-1.6-0.6-2.2,0l-4.7,4.7L53.8,10.7C51,7.9,47.3,6.3,43.3,6.3z M51.9,148c-0.9,0-1.7-0.3-2.3-0.9
			l-18.9-18.9c-1.3-1.3-1.3-3.3,0-4.6l47.1-47.1l23.5,23.5l-5.5,5.5l-5.9-5.9c-0.6-0.6-1.6-0.6-2.2,0c-0.6,0.6-0.6,1.6,0,2.2
			l5.9,5.9l-6.3,6.3l-12.7-12.7c-0.6-0.6-1.6-0.6-2.2,0c-0.6,0.6-0.6,1.6,0,2.2L85,116.3l-6.3,6.3l-5.9-5.9c-0.6-0.6-1.6-0.6-2.2,0
			c-0.6,0.6-0.6,1.6,0,2.2l5.9,5.9l-6.3,6.3l-5.9-5.9c-0.6-0.6-1.6-0.6-2.2,0c-0.6,0.6-0.6,1.6,0,2.2l5.9,5.9l-6.3,6.3L48.9,127
			c-0.6-0.6-1.6-0.6-2.2,0c-0.6,0.6-0.6,1.6,0,2.2L59.4,142l-5.2,5.2C53.6,147.7,52.8,148,51.9,148z M77.8,78.6l-46.1,46.1
			c-0.7,0.7-0.7,1.8,0,2.5l18.9,18.9c0.3,0.3,0.8,0.5,1.3,0.5c0.5,0,0.9-0.2,1.3-0.5l4.1-4.1l-11.7-11.7c-1.2-1.2-1.2-3.1,0-4.2
			c1.2-1.2,3.1-1.2,4.2,0l11.7,11.7l4.3-4.3l-4.8-4.8c-1.2-1.2-1.2-3.1,0-4.2c1.2-1.2,3.1-1.2,4.2,0l4.8,4.8l4.3-4.3l-4.8-4.8
			c-1.2-1.2-1.2-3.1,0-4.2c1.2-1.2,3.1-1.2,4.2,0l4.8,4.8l4.3-4.3l-11.7-11.7c-1.2-1.2-1.2-3.1,0-4.2c1.2-1.2,3.1-1.2,4.2,0
			l11.7,11.7l4.3-4.3l-4.8-4.8c-1.2-1.2-1.2-3.1,0-4.2c1.2-1.2,3.1-1.2,4.2,0l4.8,4.8l3.5-3.5L77.8,78.6z M167.2,145l-25.1-9.7
			l15.3-15.3L167.2,145z M144.7,134.7l20,7.8l-7.8-20L144.7,134.7z M52,46.3L45,39.4l16.5-16.5l6.9,6.9L52,46.3z M47,39.4l4.9,4.9
			l14.5-14.5l-4.9-4.9L47,39.4z M42.8,37.1l-7.7-7.7c-4.6-4.6-4.6-12,0-16.5l0,0l0,0c2.2-2.2,5.1-3.4,8.3-3.4c3.1,0,6.1,1.2,8.3,3.4
			l7.7,7.7L42.8,37.1z M43.3,10.9c-2.7,0-5.3,1.1-7.2,3l0,0c-4,4-4,10.5,0,14.5l6.7,6.7l14.5-14.5l-6.7-6.7
			C48.6,12,46.1,10.9,43.3,10.9z"/>
	</g>
</g>
</svg>
